<svg width="444" height="444" viewBox="0 0 444 444" fill="none" xmlns="http://www.w3.org/2000/svg">
<path d="M146.003 333.247C145.076 333.384 143.986 333.456 143.765 334.56C143.594 335.416 143.659 336.296 144.171 337.038C145.048 338.306 146.349 339.046 147.917 338.785C149.319 338.551 151.244 337.281 151.244 335.704C151.244 334.814 150.603 333.919 150.073 333.253C149.505 332.54 149.014 331.789 148.299 331.206C147.334 330.419 146.555 330.342 145.688 331.27C145.213 331.777 144.764 332.47 144.557 333.135C144.454 333.462 144.529 333.725 144.529 334.054C144.529 334.492 144.448 333.846 144.529 333.629" stroke="#00ADB5" stroke-linecap="round" stroke-linejoin="round"/>
<path d="M150.807 335.753C151.596 336.454 152.264 337.087 153.659 337.121C154.636 337.145 155.612 336.901 156.527 336.639C157.182 336.451 159.283 335.456 157.581 335.376" stroke="#00ADB5" stroke-linecap="round" stroke-linejoin="round"/>
<path d="M158.941 329.644C157.9 330.794 156.464 333.046 157.003 334.772C157.193 335.38 157.468 335.788 157.825 336.307C158.543 337.351 159.655 337.026 160.664 336.753C161.395 336.555 162.264 335.932 162.544 335.224C162.93 334.247 162.125 332.719 161.452 332.046C160.701 331.295 160.106 330.381 159.269 329.723C159.046 329.548 158.877 329.358 158.586 329.423C158.26 329.495 158.125 329.808 158.559 329.808" stroke="#00ADB5" stroke-linecap="round" stroke-linejoin="round"/>
<path d="M232.528 172.132C231.601 172.269 230.51 172.342 230.29 173.445C230.119 174.301 230.183 175.181 230.696 175.923C231.572 177.191 232.874 177.931 234.442 177.67C235.843 177.436 237.768 176.166 237.768 174.589C237.768 173.699 237.128 172.804 236.598 172.138C236.03 171.425 235.539 170.675 234.824 170.091C233.859 169.304 233.08 169.227 232.212 170.155C231.738 170.663 231.289 171.355 231.081 172.02C230.979 172.348 231.054 172.61 231.054 172.939C231.054 173.377 230.973 172.731 231.054 172.514" stroke="#00ADB5" stroke-linecap="round" stroke-linejoin="round"/>
<path d="M237.332 174.639C238.121 175.339 238.789 175.972 240.184 176.007C241.16 176.031 242.137 175.787 243.052 175.524C243.707 175.337 245.807 174.342 244.105 174.261" stroke="#00ADB5" stroke-linecap="round" stroke-linejoin="round"/>
<path d="M245.466 168.529C244.425 169.679 242.988 171.931 243.528 173.658C243.717 174.265 243.993 174.674 244.35 175.192C245.067 176.236 246.179 175.911 247.188 175.638C247.92 175.441 248.788 174.818 249.068 174.11C249.455 173.132 248.65 171.604 247.977 170.931C247.225 170.18 246.63 169.266 245.793 168.608C245.57 168.433 245.401 168.243 245.111 168.308C244.784 168.381 244.65 168.693 245.083 168.693" stroke="#00ADB5" stroke-linecap="round" stroke-linejoin="round"/>
<path d="M152.688 138.716C158.032 136.17 162.352 131.96 166.696 127.99C170.111 124.87 173.691 121.787 177.459 119.094C178.203 118.563 179.253 117.493 180.258 117.949C181.254 118.401 181.829 119.63 182.616 120.358C184.554 122.151 186.297 124.342 187.891 126.449C189.646 128.769 187.015 130.052 185.388 131.571C183.541 133.296 181.776 135.075 179.758 136.597C177.84 138.044 176.299 140.038 174.543 141.676C171.866 144.172 169.363 146.829 166.695 149.328C165.106 150.816 163.283 152.03 161.754 153.57C161.218 154.11 160.722 154.823 160.104 155.273C159.607 155.634 158.92 154.246 158.743 153.984C157.34 151.909 155.167 150.49 153.793 148.32C152.93 146.955 152.349 145.271 151.315 144.025C150.821 143.43 149.587 142.091 150.128 141.222C150.68 140.335 152.247 139.91 153.102 139.274C153.768 138.779 154.578 138.167 155.337 137.823C155.888 137.572 156.429 137.129 156.922 136.787C158.219 135.888 156.845 136.272 155.967 136.606" stroke="#00ADB5" stroke-linecap="round" stroke-linejoin="round"/>
<path d="M153.504 142.789C156.758 144.804 159.676 147.718 162.216 150.593C162.28 150.666 162.898 151.096 162.804 151.256C162.622 151.564 160.51 150.174 160.309 150.035" stroke="#00ADB5" stroke-linecap="round" stroke-linejoin="round"/>
<path d="M156.729 139.878C159.367 140.633 160.939 142.07 163.069 143.608C164.017 144.293 164.984 144.911 165.835 145.716C166.235 146.094 166.52 146.593 166.889 147C167.395 147.559 165.328 146.351 165.084 146.212" stroke="#00ADB5" stroke-linecap="round" stroke-linejoin="round"/>
<path d="M160.562 137.62C162.408 139.286 164.263 140.929 166.167 142.528C166.89 143.135 167.711 143.693 168.336 144.408C169.445 145.678 167.993 144.03 167.499 143.565" stroke="#00ADB5" stroke-linecap="round" stroke-linejoin="round"/>
<path d="M163.148 136.032C164.517 136.865 165.948 137.671 167.107 138.794C167.582 139.254 167.977 139.797 168.485 140.223C169.112 140.749 169.66 141.362 170.291 141.872C171.189 142.6 171.324 142.812 170.257 141.899" stroke="#00ADB5" stroke-linecap="round" stroke-linejoin="round"/>
<path d="M166.483 133.588C167.993 134.77 169.391 135.97 170.654 137.412C171.213 138.051 171.664 138.788 172.374 139.278C173.025 139.727 173.481 139.857 172.719 139.127" stroke="#00ADB5" stroke-linecap="round" stroke-linejoin="round"/>
<path d="M169.692 131.097C171.022 132.096 172.333 133.008 173.396 134.296C173.882 134.885 174.266 135.562 174.809 136.105C175.912 137.209 175.154 136.653 174.356 135.904" stroke="#00ADB5" stroke-linecap="round" stroke-linejoin="round"/>
<path d="M172.653 128.512C174.52 130.298 176.084 132.39 177.954 134.155C179.214 135.343 177.409 133.439 177.114 133.101" stroke="#00ADB5" stroke-linecap="round" stroke-linejoin="round"/>
<path d="M176.267 126.457C177.839 125.815 179.469 125.05 180.314 123.482C180.547 123.05 180.847 122.674 180.942 122.186C181.074 121.517 181.048 121.804 180.552 122.237" stroke="#00ADB5" stroke-linecap="round" stroke-linejoin="round"/>
<path d="M178.797 128.615C180.043 127.459 181.436 126.196 182.349 124.728C182.805 123.996 183.672 123.103 182.459 124.162" stroke="#00ADB5" stroke-linecap="round" stroke-linejoin="round"/>
<path d="M182.792 131.039C183.928 129.805 184.938 128.658 185.983 127.368C186.32 126.951 187.349 126.41 186.111 126.741" stroke="#00ADB5" stroke-linecap="round" stroke-linejoin="round"/>
<path d="M181.889 130.415C183.077 129.397 184.421 128.211 185.363 126.926C185.614 126.583 185.807 126.201 186.037 125.844C186.423 125.247 186.447 125.449 185.863 125.51" stroke="#00ADB5" stroke-linecap="round" stroke-linejoin="round"/>
<path d="M156.712 144.847C162.632 142.442 164.093 135.915 168.918 132.224C169.505 131.775 169.981 131.275 170.666 130.965C171.123 130.757 171.688 130.657 172.105 130.391C172.359 130.229 174.469 128.617 173.003 129.283" stroke="#00ADB5" stroke-linecap="round" stroke-linejoin="round"/>
<path d="M153.956 143.101C154.62 142.293 155.21 141.602 156.053 141.018C156.191 140.922 156.404 140.906 156.518 140.778C156.743 140.524 157.084 140.153 157.171 139.826C157.513 138.538 159.183 138.777 160.07 138.131C160.914 137.516 161.726 136.894 162.587 136.287C163.534 135.619 163.973 135.032 164.734 134.175C165.433 133.388 166.112 132.592 166.852 131.847C167.457 131.237 168.408 130.683 168.794 129.903C169.229 129.022 170.34 128.014 171.341 128.177C171.684 128.234 174.209 129.697 172.559 128.761" stroke="#00ADB5" stroke-linecap="round" stroke-linejoin="round"/>
<path d="M159.313 146.249C163.762 143.903 166.231 138.786 169.236 134.921C170.342 133.498 171.924 132.552 173.083 131.153C173.578 130.555 174.672 129.919 173.4 129.93" stroke="#00ADB5" stroke-linecap="round" stroke-linejoin="round"/>
<path d="M160.901 147.699C164.932 145.22 167.514 140.609 170.447 136.955C171.781 135.293 173.069 133.596 174.419 131.947C175.035 131.195 176.109 130.726 174.731 131.496" stroke="#00ADB5" stroke-linecap="round" stroke-linejoin="round"/>
<path d="M162.489 150.285C165.005 147.832 167.036 145.185 169.094 142.347C170.345 140.622 171.427 138.682 172.897 137.129C173.74 136.238 174.389 135.194 175.155 134.249C175.463 133.868 175.676 133.425 175.993 133.047C176.707 132.197 176.209 132.966 175.712 133.427" stroke="#00ADB5" stroke-linecap="round" stroke-linejoin="round"/>
<path d="M163.081 151.36C164.333 150.134 166.167 148.953 167.002 147.363C167.305 146.785 168.055 145.391 168.581 145.037C169.277 144.57 169.608 143.577 170.115 142.952C170.642 142.301 171.158 141.666 171.73 141.047C172.267 140.466 172.438 139.447 173.102 138.948C173.842 138.391 174.202 137.53 174.792 136.865C175.303 136.29 176.276 135.694 176.909 135.255C177.26 135.012 177.506 134.68 177.904 134.499C178.711 134.132 178.187 134.32 177.448 134.292" stroke="#00ADB5" stroke-linecap="round" stroke-linejoin="round"/>
<path d="M176.166 126.916C177.201 127.189 178.478 127.377 179.422 127.941C180.031 128.305 180.561 128.671 179.452 128.008" stroke="#00ADB5" stroke-linecap="round" stroke-linejoin="round"/>
<path d="M177.241 125.188C178.718 125.574 179.762 126.006 180.967 126.792C181.754 127.305 181.628 127.163 180.808 126.669" stroke="#00ADB5" stroke-linecap="round" stroke-linejoin="round"/>
<path d="M179.033 123.444C180.301 124.157 181.532 124.968 182.844 125.589C183.615 125.954 183.21 125.929 182.615 125.641" stroke="#00ADB5" stroke-linecap="round" stroke-linejoin="round"/>
<path d="M180.054 122.05C181.387 122.657 182.617 123.262 183.845 124.026C184.405 124.374 183.897 124.397 183.472 124.115" stroke="#00ADB5" stroke-linecap="round" stroke-linejoin="round"/>
<path d="M176.82 126.309C177.828 125.111 178.839 123.976 179.756 122.748C180.017 122.399 181.604 120.456 180.918 121.451" stroke="#00ADB5" stroke-linecap="round" stroke-linejoin="round"/>
<path d="M177.879 128.412C179.19 127.253 181.079 125.708 181.503 123.976C181.627 123.466 181.897 122.957 182.293 122.606C182.695 122.251 183.114 122.09 182.515 122.69" stroke="#00ADB5" stroke-linecap="round" stroke-linejoin="round"/>
<path d="M176.827 128.373C178.225 126.867 179.42 125.855 180.21 124C180.415 123.518 180.65 123.119 180.987 122.74C181.344 122.338 181.856 121.962 181.167 122.681" stroke="#00ADB5" stroke-linecap="round" stroke-linejoin="round"/>
<path d="M182.022 129.115C182.666 129.523 183.311 129.901 183.98 130.241C184.257 130.381 183.915 130.11 183.797 130.066" stroke="#00ADB5" stroke-linecap="round" stroke-linejoin="round"/>
<path d="M183.276 127.098C183.32 127.135 185.851 129.304 185.402 128.82" stroke="#00ADB5" stroke-linecap="round" stroke-linejoin="round"/>
<path d="M184.78 126.312C185.338 126.849 187.048 128.42 186.446 127.932" stroke="#00ADB5" stroke-linecap="round" stroke-linejoin="round"/>
<path d="M181.274 129.971C182.199 129.11 184.228 127.403 184.725 126.078C184.921 125.556 185.819 124.886 184.975 125.603" stroke="#00ADB5" stroke-linecap="round" stroke-linejoin="round"/>
<path d="M181.391 130.228C181.478 130.299 183.248 132.205 183.625 131.28C183.818 130.809 184.069 130.194 184.541 129.934C185.37 129.478 185.523 128.041 186.372 127.656C187.335 127.219 187.245 126.485 186.348 126.225C185.996 126.123 186.274 125.429 185.908 125.484C185.573 125.534 185.396 125.41 185.022 125.479" stroke="#00ADB5" stroke-linecap="round" stroke-linejoin="round"/>
<path d="M176.049 126.659C176.656 127.819 176.771 128.24 177.75 128.723C178.014 128.854 178.359 128.673 178.56 128.775C178.957 128.976 179.741 128.981 180.038 128.615C180.633 127.879 180.853 127.405 181.766 126.957C182.341 126.675 182.805 126.009 183.071 125.457C183.364 124.851 183.891 124.393 184.2 123.784C184.332 123.525 183.269 122.857 183.26 122.409C183.257 122.281 181.995 122.278 181.785 122.171C181.531 122.042 181.414 121.86 181.292 121.591C181.114 121.198 180.798 121.686 180.319 121.723" stroke="#00ADB5" stroke-linecap="round" stroke-linejoin="round"/>
<path d="M155.031 141.372C156.465 141.917 157.715 142.62 159.006 143.397C160.126 144.073 161.392 144.432 162.506 145.087C163.298 145.552 164.121 146.616 164.706 147.314C164.901 147.547 165.047 147.765 165.185 148.027C165.502 148.629 165.172 147.174 165.138 147.015" stroke="#00ADB5" stroke-linecap="round" stroke-linejoin="round"/>
<path d="M168.874 130.434C169.272 130.852 170.882 133.156 170.564 131.424" stroke="#00ADB5" stroke-linecap="round" stroke-linejoin="round"/>
<path d="M172.188 290.39C172.358 291.267 172.792 291.837 173.128 292.635C173.357 293.179 173.785 293.6 174.023 294.133C174.281 294.709 174.666 295.386 175.025 295.899C175.333 296.338 175.534 296.755 175.923 297.143C176.609 297.829 177.128 298.647 177.817 299.323C178.819 300.306 180.516 301.589 181.976 301.508C182.445 301.482 182.964 301.627 183.424 301.558C183.818 301.498 184.297 301.478 184.693 301.546C185.342 301.658 186.047 301.546 186.669 301.68C187.004 301.752 187.369 301.647 187.709 301.709C188.149 301.791 188.665 301.811 189.114 301.811C190.583 301.811 192.048 301.803 193.513 301.617C194.307 301.516 195.093 301.779 195.879 301.639C196.616 301.508 197.599 301.643 198.292 301.34C199.145 300.967 199.993 300.38 200.652 299.722C200.982 299.392 201.232 298.997 201.456 298.589C201.75 298.053 201.913 297.474 202.208 296.939C203.238 295.073 203.825 292.996 204.658 291.051C204.855 290.593 205.178 290.222 205.413 289.798C205.472 289.691 205.499 289.554 205.596 289.451C205.96 289.067 205.264 289.026 204.944 288.88" stroke="#00ADB5" stroke-linecap="round" stroke-linejoin="round"/>
<path d="M172.025 290.471C172.754 289.517 173.372 288.817 174.431 288.278C175.318 287.826 176.238 287.29 177.04 286.7C178.271 285.795 179.966 285.391 181.466 285.118C183.098 284.822 184.704 284.475 186.365 284.475C186.879 284.475 187.388 284.63 187.902 284.638C188.517 284.648 189.134 284.667 189.746 284.72C190.686 284.8 191.651 284.781 192.593 284.801C193.906 284.83 195.164 285.51 196.477 285.615C197.258 285.677 198.169 285.794 198.929 286.007C199.214 286.086 199.538 286.141 199.804 286.27C200.134 286.43 200.366 286.702 200.67 286.891C201.65 287.5 202.745 287.787 203.804 288.25C204.128 288.392 204.686 288.636 205.046 288.636C205.54 288.636 205.515 289.549 205.515 288.636" stroke="#00ADB5" stroke-linecap="round" stroke-linejoin="round"/>
<path d="M205.433 289.207C204.828 290.018 204.397 290.326 203.539 290.8C202.865 291.172 202.118 291.435 201.363 291.573C200.658 291.701 199.888 291.803 199.174 291.86C198.579 291.908 197.973 291.839 197.365 291.908C195.992 292.065 194.606 292.419 193.282 292.805C191.391 293.358 189.565 293.416 187.612 293.522C185.479 293.637 183.342 293.474 181.253 293.041C180.548 292.895 179.803 293.026 179.086 292.998C178.296 292.967 177.522 292.75 176.779 292.493C176.466 292.385 176.178 292.218 175.85 292.144C175.466 292.056 175.075 292.091 174.694 291.999C174.163 291.87 173.543 291.638 173.094 291.328C172.899 291.193 172.606 291.081 172.453 290.877C172.408 290.817 172.351 290.685 172.351 290.614C172.351 290.445 172.212 290.488 172.432 290.634" stroke="#00ADB5" stroke-linecap="round" stroke-linejoin="round"/>
<path d="M187.893 297.487C188.389 297.432 189.045 297.442 188.84 296.803C188.774 296.598 188.608 296.576 188.432 296.518C187.907 296.343 186.968 296.681 186.771 297.229C186.417 298.212 187.087 299.274 188.14 298.933C188.426 298.841 188.934 298.638 189.116 298.378C189.335 298.066 189.007 298.158 188.79 297.855" stroke="#00ADB5" stroke-linecap="round" stroke-linejoin="round"/>
<path d="M186.383 296.427C187.175 296.109 187.58 295.978 188.38 295.978C188.703 295.978 188.864 295.955 189.148 296.141C189.618 296.448 189.78 297.032 189.731 297.546C189.689 297.981 189.546 298.576 189.393 298.988C189.279 299.294 188.998 299.347 188.711 299.405C188.448 299.457 187.875 299.31 187.668 299.425C187.449 299.547 186.778 299.588 186.608 299.362C186.452 299.153 186.284 299.064 186.17 298.811C186.062 298.57 186.013 298.339 185.926 298.099C185.806 297.77 185.59 296.87 186.037 296.672C186.298 296.555 186.41 296.486 186.71 296.486C186.795 296.486 186.868 296.549 186.955 296.549C187.08 296.549 186.713 296.468 186.587 296.468" stroke="#00ADB5" stroke-linecap="round" stroke-linejoin="round"/>
<path d="M187.811 293.164C188.386 292.42 188.912 291.652 189.506 290.929C189.826 290.541 190.223 290.206 190.567 289.834C191.553 288.77 192.557 287.605 193.309 286.36C194.049 285.135 195.06 283.8 196.158 282.879C196.737 282.393 197.255 281.856 197.76 281.295C198.249 280.752 198.475 279.991 198.938 279.417C199.297 278.972 201.647 275.944 202.057 277.785C202.217 278.508 201.512 279.014 201.069 279.457C200.566 279.96 200.06 280.599 199.632 281.171C199.219 281.722 198.716 282.206 198.315 282.762C197.769 283.518 196.776 284.058 196.377 284.914C196.049 285.621 195.504 286.188 195.095 286.843C194.528 287.75 193.863 288.508 193.196 289.338C192.666 289.996 191.837 290.537 191.462 291.287C191.149 291.914 190.593 292.178 190.086 292.583C189.866 292.76 189.598 292.858 189.402 293.102C189.337 293.184 189.22 293.278 189.159 293.186C189.125 293.134 188.992 293.251 189.017 293.309C189.104 293.511 188.892 292.82 188.872 292.756" stroke="#00ADB5" stroke-linecap="round" stroke-linejoin="round"/>
<path d="M187.485 293.367C187.641 293.447 188.627 294.195 188.627 293.592C188.627 293.409 188.862 293.105 188.944 292.919C189.007 292.778 188.443 292.913 188.36 293.021C188.25 293.162 188.038 293.276 188.382 293.286C188.647 293.293 188.854 293.18 189.055 293.023C189.113 292.978 189.891 293.101 189.198 293.082C188.829 293.072 188.471 293.082 188.117 293.082C187.811 293.082 188.431 293 188.52 293C188.592 293 188.003 293.35 187.902 293.236C187.877 293.208 187.834 293.132 187.933 293.082" stroke="#00ADB5" stroke-linecap="round" stroke-linejoin="round"/>
<path d="M174.513 290.349C174.559 290.373 176.017 291.137 176.022 291.042C176.029 290.928 175.948 290.829 176.004 290.716C176.251 290.223 176.57 290.459 176.994 290.65C177.326 290.799 176.823 289.149 177.822 289.846C178.338 290.206 178.475 290.148 178.39 289.544C178.326 289.087 178.484 289.086 178.878 289.134C179.145 289.167 179.337 289.226 179.49 288.971C179.675 288.662 179.884 288.487 180.262 288.62C180.576 288.73 180.855 289.041 181.071 288.645C181.166 288.47 181.086 287.949 181.386 288.049C181.574 288.111 181.822 288.357 182.037 288.28C182.199 288.221 182.324 287.718 182.508 287.797C182.7 287.88 182.896 288.245 183.138 288.157C183.255 288.115 183.472 287.733 183.242 287.779" stroke="#00ADB5" stroke-linecap="round" stroke-linejoin="round"/>
<path d="M180.265 289.615C180.77 290.026 182.664 292.224 183.22 290.582C183.319 290.288 183.335 289.706 183.614 290.188C183.844 290.585 184.19 290.861 184.566 290.485C184.815 290.236 184.926 289.813 185.282 289.683C185.609 289.563 185.849 290.177 186.121 289.819C186.34 289.529 186.234 289.032 185.912 288.858C185.807 288.801 185.777 288.997 185.731 289.044" stroke="#00ADB5" stroke-linecap="round" stroke-linejoin="round"/>
<path d="M184.629 287.086C185.417 286.95 186.409 286.675 187.009 287.38C187.287 287.707 187.26 288.125 187.077 288.495C186.943 288.766 186.582 288.901 186.352 288.636C186.163 288.418 186.552 288.059 186.692 287.926C187.169 287.471 187.877 288.2 188.026 288.695C188.151 289.108 187.022 290.065 187.158 289.655" stroke="#00ADB5" stroke-linecap="round" stroke-linejoin="round"/>
<path d="M197.887 288.472C198.121 288.392 199.626 287.907 199.337 288.708C199.189 289.119 198.621 289.339 198.249 289.474C198.073 289.538 197.618 289.527 197.914 289.27C198.17 289.048 198.53 288.944 198.866 288.971C200.175 289.077 198.344 290.581 197.968 290.789C197.238 291.191 196.244 291.615 195.48 291.124" stroke="#00ADB5" stroke-linecap="round" stroke-linejoin="round"/>
<path d="M189.851 286.066C190.161 286.571 190.535 287.078 190.8 287.609C190.891 287.792 190.496 287.324 190.404 287.142C190.379 287.094 190.209 286.558 190.193 286.562C189.994 286.606 189.947 287.516 189.894 287.684C189.64 288.478 189.012 288.174 188.396 288.114C187.65 288.043 187.317 288.778 186.904 289.248C186.575 289.623 186.445 289.738 186.669 290.186C186.85 290.548 186.925 290.899 186.669 291.226C186.469 291.481 186.219 291.643 185.978 291.854C185.757 292.047 186.073 292.015 186.032 291.899C185.919 291.582 185.221 291.648 184.992 291.663C184.143 291.719 183.278 291.506 182.445 291.559C182.002 291.587 181.585 291.834 181.146 291.899C180.7 291.965 181.29 292.352 181.456 292.463C181.744 292.655 180.894 292.056 180.582 291.908C180.058 291.66 179.575 291.468 179.304 290.92C179.032 290.37 178.793 289.995 178.334 289.592C178.175 289.453 178.157 289.241 178.234 289.053C178.413 288.616 178.81 288.26 179.204 288.024" stroke="#00ADB5" stroke-linecap="round" stroke-linejoin="round"/>
<path d="M189.769 287.697C188.747 286.984 187.903 286.676 186.701 286.514C186.278 286.458 185.827 286.165 185.552 285.841C185.307 285.554 185.446 285.63 185.157 286.02C184.763 286.553 184.471 286.075 183.968 286.215C183.196 286.43 182.534 287.148 181.751 287.28C181.537 287.317 181.589 286.958 181.321 287.113C180.87 287.373 180.524 287.619 179.997 287.702C179.678 287.752 179.074 287.962 179.122 288.35" stroke="#00ADB5" stroke-linecap="round" stroke-linejoin="round"/>
<path d="M196.704 287.697C197.69 287.792 198.69 287.78 199.672 287.885C200.018 287.923 200.195 288.062 200.438 288.289C200.658 288.493 201.001 288.974 201.315 289C201.77 289.038 202.004 288.85 202.428 288.717C202.683 288.637 203.498 288.717 203.23 288.717" stroke="#00ADB5" stroke-linecap="round" stroke-linejoin="round"/>
<path d="M195.97 288.799C194.909 289.498 194.342 290.558 193.207 291.194C192.982 291.32 192.294 291.564 192.346 291.978C192.383 292.278 194.681 291.34 195.031 291.165" stroke="#00ADB5" stroke-linecap="round" stroke-linejoin="round"/>
<path d="M199.926 289.778C200.503 290.207 201 290.821 201.721 290.603C201.916 290.544 202.324 290.521 202.455 290.39" stroke="#00ADB5" stroke-linecap="round" stroke-linejoin="round"/>
<path d="M342.482 271.995C339.503 272.567 337.338 273.427 335.45 275.854C334.253 277.392 334.515 279.814 335.3 281.445C336.591 284.132 339.767 285.649 342.632 285.781C345.97 285.935 350.61 284.954 351.294 280.973C351.661 278.839 349.622 276.821 348.668 275.071C347.891 273.648 346.722 271.729 345.087 271.126C344.42 270.881 342.871 270.966 342.386 271.63C342.169 271.927 341.89 272.24 341.732 272.574C341.604 272.844 341.741 271.886 341.71 271.609" stroke="#00ADB5" stroke-linecap="round" stroke-linejoin="round"/>
<path d="M343.736 279.327C342.933 279.741 341.628 280.014 342.332 280.919C342.493 281.126 342.721 281.114 342.916 280.919C343.083 280.753 343.923 279.878 343.302 279.671C342.036 279.249 342.499 281.775 343.404 280.657C343.89 280.056 343.21 279.465 342.6 279.831C341.874 280.267 342.448 281.028 343.018 280.367C343.448 279.869 343.105 279.487 342.638 279.955C342.219 280.373 342.644 281.04 343.056 280.475C343.478 279.894 342.997 279.403 342.488 279.912C341.898 280.501 342.536 280.439 342.954 280.051C343.375 279.66 342.628 279.718 342.386 280.024C341.823 280.736 342.705 280.635 342.847 280.024C343.055 279.127 342.13 281.189 342.579 279.617" stroke="#00ADB5" stroke-linecap="round" stroke-linejoin="round"/>
<path d="M340.456 276.336C341.313 277.467 342.191 278.54 342.911 279.67C343.11 279.984 342.951 280.298 343.061 280.292C343.467 280.27 343.883 280.196 344.315 280.196C345.305 280.196 346.085 279.713 347.038 279.713C348.193 279.713 349.89 279.413 347.982 278.459" stroke="#00ADB5" stroke-linecap="round" stroke-linejoin="round"/>
<path d="M339.491 271.898C339.311 270.986 338.43 268.775 340.07 269.009C340.658 269.093 341.053 269.702 341.399 270.086C342.3 271.087 342.204 272.295 340.745 272.381C340.363 272.403 339.826 273.161 339.395 272.622C338.907 272.012 339.405 272.053 339.491 271.319C339.548 270.839 339.234 270.879 339.1 270.408C338.997 270.047 339.211 269.651 339.298 269.39" stroke="#00ADB5" stroke-linecap="round" stroke-linejoin="round"/>
<path d="M340.07 270.837C340.062 271.067 339.706 273.144 340.461 272.804C340.714 272.69 340.933 272.525 341.035 272.263C341.134 272.009 341.029 271.857 340.917 271.609C340.629 270.969 339.795 269.975 340.049 271.416C340.209 272.325 341.224 272.112 341.303 271.244C341.363 270.581 340.527 269.693 339.995 270.451C339.619 270.987 340.289 272.168 340.681 271.341C340.88 270.921 340.404 269.852 339.899 270.376C339.38 270.913 340.159 272.046 340.67 271.587C341.176 271.134 340.832 269.752 340.285 270.279C339.783 270.762 340.535 271.722 340.917 270.987C341.343 270.167 340.405 269.549 340.113 270.408C339.853 271.175 340.665 272 340.853 270.955C340.996 270.159 339.534 269.736 339.534 270.687C339.534 271.563 340.317 271.473 340.317 270.676C340.317 269.846 339.48 270.032 339.829 270.73C340.178 271.427 340.645 270.189 340.252 269.797C339.794 269.339 339.188 270.047 339.727 270.488C340.095 270.789 340.597 269.541 339.979 269.309C339.445 269.109 339.74 270.199 339.925 269.952C340.212 269.57 339.773 269.314 340.076 269.39C340.342 269.456 340.991 269.599 341.174 269.835C341.319 270.02 341.903 271.051 341.903 271.319C341.903 272.139 340.65 272.581 339.931 272.375C339.415 272.228 339.262 272.592 339.443 272.472C339.882 272.179 339.974 271.416 339.974 271.705" stroke="#00ADB5" stroke-linecap="round" stroke-linejoin="round"/>
<path d="M339.974 285.695C339.477 286.749 339.036 287.808 338.451 288.804C338.32 289.029 338.073 289.486 338.044 289.748C337.966 290.452 338.673 288.069 338.816 287.722" stroke="#00ADB5" stroke-linecap="round" stroke-linejoin="round"/>
<path d="M349.719 283.669C350.941 285.212 352.288 286.312 353.24 288.006C353.334 288.172 353.497 288.305 353.626 288.434C354.06 288.868 352.822 287.509 352.42 287.046" stroke="#00ADB5" stroke-linecap="round" stroke-linejoin="round"/>
<path d="M268.785 193.709C269.55 196.593 272.5 207.313 273.206 211.229C275.149 222.014 272.1 207.298 272.092 212.061" stroke="#00ADB5" stroke-width="2" stroke-linecap="round" stroke-linejoin="round"/>
<path d="M263.608 198.371C263.347 193.983 262.363 187.893 268.516 188.52C271.41 188.815 274.599 190.533 276.403 192.832C279.192 196.384 277.721 201.89 274.708 204.718C273.104 206.222 271.548 206.976 269.449 207.545C265.894 208.508 268.7 203.57 269.272 202.217" stroke="#00ADB5" stroke-width="2" stroke-linecap="round" stroke-linejoin="round"/>
<path d="M279.611 203.734C285.725 203.407 291.352 202.203 293.539 208.834C294.81 212.687 296.358 217.368 295.298 221.429C294.341 225.098 292.279 227.392 288.509 225.829C283.121 223.595 283.128 219.39 286.061 215.197C287.14 213.653 291.275 210.561 291.278 208.756" stroke="#00ADB5" stroke-width="2" stroke-linecap="round" stroke-linejoin="round"/>
<path d="M290.63 196.579C290.422 198.188 290.418 209.567 287.339 209.676C286.761 209.697 286.276 209.997 285.772 210.248C283.833 211.214 285.012 210.345 285.736 209.34C287.376 207.064 290.696 207.905 292.359 204.884C294.165 201.604 294.996 199.991 292.408 197.453C290.594 195.675 291.391 192.65 289.963 196.912" stroke="#00ADB5" stroke-width="2" stroke-linecap="round" stroke-linejoin="round"/>
<path d="M299.653 186.253C302.016 191.572 304.176 198.5 307.966 203.13C308.968 204.354 309.53 203.289 309.515 202.336C309.495 201.131 309.156 199.916 308.807 198.776" stroke="#00ADB5" stroke-width="2" stroke-linecap="round" stroke-linejoin="round"/>
<path d="M292.793 200.085C296.542 198.61 305.747 197.117 307.316 192.436" stroke="#00ADB5" stroke-width="2" stroke-linecap="round" stroke-linejoin="round"/>
<path d="M304.323 186.427C320.572 214.849 304.741 194.872 313 189.674C318.014 186.519 318.432 201.39 319.821 194.958" stroke="#00ADB5" stroke-width="2" stroke-linecap="round" stroke-linejoin="round"/>
<path d="M318.835 185.449C319.425 187.212 321.405 198.848 325.527 196.19C327.37 195.001 329.517 192.735 329.872 190.507C330.254 188.117 328.76 182.044 325.381 182.698C323.839 182.996 321.26 183.069 320.254 184.534C319.282 185.95 318.668 189.268 319.835 185.784" stroke="#00ADB5" stroke-width="2" stroke-linecap="round" stroke-linejoin="round"/>
<path d="M330.348 182.632C334.956 179.673 340.372 178.702 341.073 185.669C341.161 186.544 341.178 187.645 341.579 188.45C342.044 189.384 341.089 186.168 340.184 185.649" stroke="#00ADB5" stroke-width="2" stroke-linecap="round" stroke-linejoin="round"/>
<path d="M330.01 185.3C330.219 188.942 329.698 193.876 331.4 197.292C331.458 197.409 331.862 198.3 331.658 197.812C331.255 196.845 331.088 196.189 330.328 195.141" stroke="#00ADB5" stroke-width="2" stroke-linecap="round" stroke-linejoin="round"/>
<path d="M213.384 218.27C212.745 224.19 213.858 242.416 203.804 241.282C201.708 241.045 199.804 240.695 198.808 238.72C197.765 236.652 196.903 234.853 196.799 232.504C196.671 229.618 197.82 228.257 200.153 226.955C200.971 226.498 199.213 228.347 199.057 228.526C198.032 229.704 201.511 228.268 202.84 227.973" stroke="#00ADB5" stroke-width="2" stroke-linecap="round" stroke-linejoin="round"/>
<path d="M226.292 221.115C221.206 221.59 214.028 222.555 213.208 228.917C212.763 232.367 217.893 232.787 220.12 233.962C223.946 235.982 226.849 242.567 222.558 245.466C219.573 247.481 217.316 246.41 214.412 246.611C211.463 246.816 213.517 245.729 215.265 245.431" stroke="#00ADB5" stroke-width="2" stroke-linecap="round" stroke-linejoin="round"/>
<path d="M253.848 64.4838C253.441 68.568 253.193 72.694 252.689 76.7685C252.641 77.1605 252.255 78.708 252.711 77.4569C253.045 76.542 252.937 75.5887 253.473 74.7212C254.211 73.5263 257.546 68.9749 259.113 69.4353C262.252 70.358 259.083 76.1813 258.184 77.8499C257.874 78.4254 257.03 79.6737 257.467 80.3191C258.05 81.1795 259.129 77.9999 259.174 77.9026" stroke="#00ADB5" stroke-width="2" stroke-linecap="round" stroke-linejoin="round"/>
<path d="M266.248 67.1657C265.876 68.9904 262.75 77.9969 265.762 79.4888C266.611 79.9098 268.491 79.1151 269.076 78.43C269.684 77.7166 269.366 76.6242 269.3 75.7962" stroke="#00ADB5" stroke-width="2" stroke-linecap="round" stroke-linejoin="round"/>
<path d="M260.052 67.3625C263.356 68.345 266.754 68.9991 270.036 70.0128C270.811 70.2521 271.102 70.3605 271.519 71.0517C272.168 72.1269 270.444 71.1447 270.147 70.819" stroke="#00ADB5" stroke-width="2" stroke-linecap="round" stroke-linejoin="round"/>
<path d="M274.993 73.7464C274.235 76.0358 273.522 78.3539 272.657 80.6068C272.484 81.0547 272.459 81.2185 272.366 80.8764C272.276 80.5469 272.19 80.3527 272.336 80.0046C273.114 78.1549 274.929 75.4964 276.641 74.4633C278.49 73.3476 277.481 77.0952 277.232 77.8538C276.954 78.7058 276.202 81.041 277.056 78.7814C277.565 77.4367 278.732 74.0946 280.699 74.581C281.89 74.8756 281.615 76.4863 281.405 77.3381C281.016 78.9087 280.63 80.4688 280.241 82.0447C279.671 84.3475 279.979 83.1039 280.395 81.4211" stroke="#00ADB5" stroke-width="2" stroke-linecap="round" stroke-linejoin="round"/>
<path d="M289.679 68.7338C288.493 73.0026 287.036 77.2593 286.014 81.5726C285.894 82.0784 285.632 83.9515 286.438 84.1746C287.203 84.3865 290.226 82.5702 289.487 81.9406" stroke="#00ADB5" stroke-width="2" stroke-linecap="round" stroke-linejoin="round"/>
<path d="M84.2092 242.862C81.4025 248.194 78.6048 253.531 75.7906 258.859C74.9885 260.378 73.4052 265.024 73.2092 263.318C72.9434 261.004 74.357 257.765 74.9568 255.597C75.8033 252.538 77.5269 246.425 81.8218 246.448C85.0639 246.465 88.7087 251.219 89.2114 254.185C89.5664 256.28 90.5987 253.915 91.9997 253.283" stroke="#00ADB5" stroke-width="2" stroke-linecap="round" stroke-linejoin="round"/>
<path d="M92.909 259.944C94.7951 264.331 97.5754 271.746 103.301 267.667C105.932 265.792 104.624 262.584 102.027 261.565C95.6626 259.068 87.6429 266.041 86.0557 271.772C84.4688 277.502 90.7333 279.259 95.0427 279.825C97.4272 280.138 96.8924 278.1 98.9442 277.39" stroke="#00ADB5" stroke-width="2" stroke-linecap="round" stroke-linejoin="round"/>
<path d="M108.76 275.111C103.816 273.046 97.2656 271.206 94.4793 277.524C93.1364 280.569 99.1467 280.927 100.929 280.843C104.334 280.683 111.916 272.801 109.361 275.058C107.12 277.038 104.851 279.376 103.93 282.301C103.334 284.19 104.018 288.364 106.208 285.481" stroke="#00ADB5" stroke-width="2" stroke-linecap="round" stroke-linejoin="round"/>
<path d="M127.986 279.064C120.81 279.752 112.306 280.112 109.76 288.175C108.508 292.138 111.445 294.894 114.983 296.057C117.455 296.87 119.975 295.106 121.475 293.315" stroke="#00ADB5" stroke-width="2" stroke-linecap="round" stroke-linejoin="round"/>
<path d="M134.504 280.157C134.11 280.636 116.434 299.902 124.86 300.051C127.192 300.092 129.587 298.735 131.194 297.208" stroke="#00ADB5" stroke-width="2" stroke-linecap="round" stroke-linejoin="round"/>
<path d="M119.531 283.663C122.925 286.003 126.271 288.481 129.994 290.29C130.961 290.76 132.572 290.985 133.238 291.959C133.612 292.506 133.024 291.206 132.958 291.017" stroke="#00ADB5" stroke-width="2" stroke-linecap="round" stroke-linejoin="round"/>
<path d="M81.6746 129.41C84.5228 134.281 93.5676 148.491 89.8957 144.207C87.5486 141.469 85.7658 137.834 84.2777 134.595C82.7161 131.196 81.2498 125.13 87.2006 125.438C92.3081 125.702 94.3471 130.918 95.2455 135.193C95.6419 137.079 95.743 138.544 96.589 140.26C97.4541 142.014 97.5021 135.256 97.8309 133.502" stroke="#00ADB5" stroke-width="2" stroke-linecap="round" stroke-linejoin="round"/>
<path d="M100.076 119.504C100.235 120.241 102.697 137.085 106.27 133.845C107.775 132.481 108.105 129.119 108.299 127.277C108.902 121.52 106.471 120.809 102.429 119.591C100.501 119.01 100.106 119.036 99.5765 121.021C98.4893 125.097 100.203 123.952 102.399 121.685" stroke="#00ADB5" stroke-width="2" stroke-linecap="round" stroke-linejoin="round"/>
<path d="M115.614 114.753C113.628 118.098 111.097 122.034 112.493 126.133C113.073 127.833 114.42 127.384 115.364 126.427C116.854 124.916 117.63 122.434 117.547 120.36C117.389 116.384 114.898 112.982 112.285 110.157C111.922 109.765 108.622 107.044 109.268 109.38C110.429 113.576 113.66 117.612 115.912 121.259C119.622 127.27 120.76 124.936 122.427 119.293" stroke="#00ADB5" stroke-width="2" stroke-linecap="round" stroke-linejoin="round"/>
<path d="M122.78 115.793C124.012 116.942 133.735 123.887 134.037 117.727C134.065 117.168 133.352 116.993 133.117 116.517C132.512 115.29 131.509 114.48 130.964 113.836" stroke="#00ADB5" stroke-width="2" stroke-linecap="round" stroke-linejoin="round"/>
<path d="M123.591 119.967C119.741 114.912 114.363 109.655 119.876 104.657C122.199 102.552 127.018 104.217 126.892 107.735C126.834 109.374 126.488 113.426 124.134 113.854C122.89 114.081 122.316 113.266 123.467 112.127" stroke="#00ADB5" stroke-width="2" stroke-linecap="round" stroke-linejoin="round"/>
<path d="M132.38 98.9998C134.868 100.584 152.605 111.065 143.315 115.646C141.867 116.36 140.593 114.696 139.823 113.626C138.088 111.212 143.143 107.788 143.354 105.231" stroke="#00ADB5" stroke-width="2" stroke-linecap="round" stroke-linejoin="round"/>
<path d="M146.937 90.5735C145.489 91.7566 137.179 99.1053 143.713 100.526C147.323 101.311 150.734 97.7143 153.477 95.919C157.897 93.0269 158.829 98.5921 157.615 101.733C156.871 103.657 150.663 109.952 152.362 104.947" stroke="#00ADB5" stroke-width="2" stroke-linecap="round" stroke-linejoin="round"/>
<path d="M195.983 364.094C190.454 366.876 183.21 371.949 189.187 378.681C192.054 381.91 197.346 380.587 201.121 380.214C202.182 380.109 205.109 381.129 204.312 380.421C202.589 378.889 201.348 378.988 200.831 376.402" stroke="#00ADB5" stroke-width="2" stroke-linecap="round" stroke-linejoin="round"/>
<path d="M212.393 362.23C212.393 366.305 212.355 369.222 216.537 370.807C218.342 371.492 219.476 372.12 219.955 374.143C220.497 376.43 218.901 379.743 217.013 381.022C214.678 382.604 211.746 383.155 209.119 382.079C206.87 381.157 209.356 380.067 210.528 379.012" stroke="#00ADB5" stroke-width="2" stroke-linecap="round" stroke-linejoin="round"/>
<path d="M230.667 357.754C229.934 360.596 226.627 368.197 229.569 371.139C230.756 372.326 233.056 371.667 234.521 372.009C235.978 372.35 237.228 373.465 238.126 374.62C239.548 376.448 238.194 379.218 236.551 380.504C234.002 382.499 230.361 381.623 227.393 381.623C225.773 381.623 226.88 381.508 227.683 380.504" stroke="#00ADB5" stroke-width="2" stroke-linecap="round" stroke-linejoin="round"/>
<path d="M224.238 322.385C227.111 321.288 232.44 319.544 235.219 317.578C238.152 315.503 235.081 314.906 233.52 315.402C230.875 316.242 229.278 319.012 228.382 321.452C226.022 327.877 233.529 335.138 239.839 334.402C245.672 333.722 246.485 330.866 247.361 326.487" stroke="#00ADB5" stroke-width="2" stroke-linecap="round" stroke-linejoin="round"/>
<path d="M251.09 319.028C250.437 320.092 244.23 332.872 242.512 326.86" stroke="#00ADB5" stroke-width="2" stroke-linecap="round" stroke-linejoin="round"/>
<path d="M239.529 319.401C242.147 322.902 248.474 335.418 254.82 335.065C255.74 335.014 254.519 331.471 254.447 330.963" stroke="#00ADB5" stroke-width="2" stroke-linecap="round" stroke-linejoin="round"/>
<path d="M256.684 319.401C258.131 327.876 261.029 353.489 259.378 345.052C258.527 340.701 250.754 317.16 257.596 318.137C260.563 318.561 268.138 322.891 266.153 326.86C265.037 329.092 258.12 329.872 261.16 328.352" stroke="#00ADB5" stroke-width="2" stroke-linecap="round" stroke-linejoin="round"/>
<path d="M270.857 325.368C271.778 330.163 272.665 334.955 273.467 339.768C273.605 340.593 273.42 339.913 273.177 339.458C271.652 336.597 269.563 331.499 269.634 328.29C269.702 325.249 273.885 323.176 276.078 325.368" stroke="#00ADB5" stroke-width="2" stroke-linecap="round" stroke-linejoin="round"/>
<path d="M282.791 330.963C282.694 334.473 285.241 346.76 291.286 343.187C292.152 342.675 294.289 341.425 294.353 340.287C294.386 339.679 293.282 339.541 292.861 339.541C291.753 339.541 291.476 338.166 290.996 337.303" stroke="#00ADB5" stroke-width="2" stroke-linecap="round" stroke-linejoin="round"/>
<path d="M280.926 332.082C284.193 328.702 287.867 324.046 290.768 330.072C291.617 331.836 291.322 333.961 290.623 335.728C289.495 338.583 285.453 339.708 286.521 335.438" stroke="#00ADB5" stroke-width="2" stroke-linecap="round" stroke-linejoin="round"/>
<path d="M301.066 325.368C303.622 329.453 313.96 340.464 307.178 345.487C305.008 347.094 303.592 347.087 301.149 347C297.699 346.876 299.522 346.002 300.693 343.27" stroke="#00ADB5" stroke-width="2" stroke-linecap="round" stroke-linejoin="round"/>
<path d="M316.73 323.877C315.958 324.811 305.985 334.452 312.047 335.48C314.281 335.858 316.335 334.505 318.387 335.873C322.09 338.342 321.213 341.688 317.807 343.788C316.105 344.838 314.205 345.388 312.42 346.254C311.411 346.743 312.486 345.326 312.627 344.762" stroke="#00ADB5" stroke-width="2" stroke-linecap="round" stroke-linejoin="round"/>
<path d="M308.152 319.774C307.286 320.41 297.962 325.585 299.284 328.725C300.952 332.687 301.503 327.81 301.812 326.114" stroke="#00ADB5" stroke-width="2" stroke-linecap="round" stroke-linejoin="round"/>
<path d="M78.9289 197.776C80.59 193.859 79.9097 190.446 79.9097 186.387C79.9097 185.598 79.7664 183.193 80.5962 182.762C81.9048 182.083 83.1277 181.63 84.6716 181.63C85.6981 181.63 86.7295 181.66 87.7555 181.63C88.7817 181.601 89.7757 181.183 90.7903 181.059C92.6781 180.828 94.6416 181.15 96.5058 181.15C97.9859 181.15 99.5171 181.342 100.941 181.342C101.194 181.342 102.224 181.462 102.39 181.609C102.898 182.057 102.753 182.776 103.153 183.168" stroke="#00ADB5" stroke-linecap="round" stroke-linejoin="round"/>
<path d="M103.055 183.515C103.12 184.671 103.144 186.293 103.62 187.422C103.928 188.154 103.682 189.128 103.745 189.907C103.864 191.404 103.641 192.862 103.641 194.314C103.641 196.261 103.739 198.184 103.739 200.12C103.739 201.783 102.115 201.504 100.83 201.271C99.7209 201.069 98.2318 201.473 97.0753 201.488C94.8442 201.515 92.6027 201.683 90.3681 201.683C88.5019 201.683 87.116 201.141 85.3974 200.489C84.4797 200.141 83.925 200.218 82.9392 200.218C82.0056 200.218 81.2378 200.072 80.3019 200.364C79.7543 200.536 78.7738 200.388 78.4623 199.827C78.0888 199.155 78.8313 198.863 78.8313 198.313C78.8313 197.851 78.7732 196.53 78.929 197.776" stroke="#00ADB5" stroke-linecap="round" stroke-linejoin="round"/>
<path d="M90.0643 186.055C90.0643 186.055 90.455 186.25 90.8458 186.641C91.2365 186.934 92.0589 186.787 92.7505 186.787C93.1144 186.787 93.4986 186.504 93.8249 186.359C94.4859 186.065 94.0917 186.617 93.9335 186.934C93.7583 187.284 93.9583 187.935 94.2753 188.155C94.7983 188.517 95.3158 188.204 95.8273 187.949C96.0397 187.842 95.9814 187.793 96.0471 187.938C96.1362 188.134 96.1203 188.418 96.1203 188.632C96.1203 189.119 96.0884 189.928 95.8273 190.352C95.4839 190.911 95.1369 191.272 94.5846 191.682C94.0391 192.087 93.3183 192.794 92.5931 192.794C91.176 192.794 89.6719 192.486 88.9627 191.107C88.6622 190.522 88.1108 190.044 88.1108 189.376C88.1108 188.818 87.9263 188.15 88.1108 187.617C88.3344 186.972 88.8922 186.359 88.6969 186.359C88.7965 186.387 89.6736 185.859 90.0643 186.055Z" stroke="#00ADB5" stroke-linecap="round" stroke-linejoin="round"/>
<path d="M91.676 185.713C92.2256 185.509 93.4807 185.083 93.7761 184.419C94.0044 183.905 93.2498 183.808 92.8482 183.808C92.3611 183.808 91.7839 184.481 91.6543 184.907C91.5823 185.144 91.5138 185.386 91.4427 185.626C91.4084 185.742 91.4542 185.826 91.478 185.933C91.4961 186.014 92.2413 185.623 92.2133 185.511" stroke="#00ADB5" stroke-linecap="round" stroke-linejoin="round"/>
<path d="M101.347 196.704L79.9194 197.174C77.6316 197.224 75.8033 199.093 75.8033 201.382C75.8033 203.706 77.6875 205.59 80.0118 205.59H101.444C103.898 205.59 105.888 203.601 105.888 201.146C105.888 198.654 103.838 196.649 101.347 196.704Z" stroke="#00ADB5"/>
<path d="M84.6565 197.056C84.9809 197.559 85.2609 198.163 85.6332 198.628C85.8204 198.862 85.7903 198.815 86.1533 198.68C86.7592 198.456 87.4457 198.617 88.0778 198.617C88.6328 198.617 89.278 198.327 89.8174 198.472C90.4422 198.64 91.1789 198.319 91.7939 198.305C92.535 198.287 93.2414 198.357 93.9785 198.357C94.4228 198.357 94.856 198.096 95.2673 198.096C95.5059 198.096 96.186 198.286 96.2035 197.848C96.212 197.635 96.3075 197.428 96.3075 197.212C96.3075 196.921 96.1331 197.047 95.8394 196.9" stroke="#00ADB5" stroke-linecap="round" stroke-linejoin="round"/>
<path d="M190.472 90.2846C190.873 89.7747 191.641 88.8311 190.565 88.6643C190.321 88.6265 190.094 88.4834 189.855 88.5917C189.118 88.9254 188.434 89.6599 188.434 90.5333C188.434 91.9283 189.964 92.2304 191.076 92.2124C192.951 92.1819 193.521 90.3549 194.184 88.875C194.853 87.3801 195.596 85.9094 196.29 84.4252C197.075 82.7458 198.363 81.4079 199.178 79.7439C199.528 79.0304 199.984 78.402 200.434 77.7505C201.132 76.7399 201.629 75.7203 202.128 74.5997C202.538 73.6803 202.992 72.8408 203.494 71.9706C203.697 71.6187 203.62 71.0796 204.008 71.4558C204.303 71.7415 204.771 71.9291 205.168 72.0017C206.901 72.319 208.494 72.6549 210.279 72.513C212.084 72.3695 213.888 72.1109 215.665 71.7667C216.269 71.6498 216.011 71.7906 215.726 72.1571C215.243 72.7789 214.831 73.4377 214.368 74.0677C213.764 74.8892 213.552 75.8785 213.195 76.8177C212.802 77.8501 212.335 78.8362 211.96 79.8856C211.235 81.9136 210.178 83.763 208.869 85.4651C208.111 86.4515 207.174 88.1743 205.754 88.1046C203.557 87.9966 205.041 83.6714 206.09 82.8256C206.656 82.3703 207.274 82.8605 207.343 83.4717C207.437 84.3114 207.149 85.4623 206.334 85.8728C205.474 86.3059 204.815 86.2539 205.476 85.1369C205.877 84.4611 206.115 85.2049 206.279 84.8743" stroke="#00ADB5" stroke-width="2" stroke-linecap="round" stroke-linejoin="round"/>
<path d="M356.062 240.957C356.464 240.447 357.232 239.503 356.155 239.336C355.911 239.299 355.684 239.156 355.445 239.264C354.709 239.597 354.025 240.332 354.025 241.205C354.025 242.6 355.555 242.903 356.666 242.884C358.541 242.854 359.112 241.027 359.774 239.547C360.443 238.052 361.186 236.582 361.88 235.097C362.666 233.418 363.954 232.08 364.769 230.416C365.118 229.703 365.574 229.074 366.024 228.423C366.722 227.412 367.22 226.392 367.719 225.272C368.128 224.352 368.582 223.513 369.084 222.643C369.287 222.291 369.211 221.752 369.599 222.128C369.893 222.414 370.362 222.601 370.758 222.674C372.491 222.991 374.085 223.327 375.869 223.185C377.674 223.042 379.478 222.783 381.255 222.439C381.859 222.322 381.602 222.463 381.317 222.829C380.834 223.451 380.421 224.11 379.958 224.74C379.355 225.561 379.142 226.551 378.785 227.49C378.393 228.522 377.925 229.508 377.55 230.558C376.825 232.586 375.768 234.435 374.459 236.137C373.701 237.124 372.765 238.846 371.345 238.777C369.147 238.669 370.631 234.344 371.681 233.498C372.246 233.042 372.864 233.533 372.933 234.144C373.028 234.984 372.74 236.134 371.924 236.545C371.064 236.978 370.405 236.926 371.067 235.809C371.467 235.133 371.705 235.877 371.87 235.546" stroke="#00ADB5" stroke-width="2" stroke-linecap="round" stroke-linejoin="round"/>
<path d="M338.357 153.07C336.518 149.738 336.627 148.786 337.046 145.432C337.277 143.585 337.365 141.781 337.832 139.964C338.668 136.715 338.939 132.339 336.323 129.723C331.175 124.576 321.589 131.896 324.492 138.427C325.596 140.913 327.505 142.753 328.884 145.098C329.437 146.038 329.747 147.057 330.466 147.936C331.155 148.778 332.012 149.827 332.012 150.873C332.012 151.757 331.748 152.903 332.373 153.684C333.237 154.764 332.93 154.209 334.208 154.209C335.087 154.209 336.383 153.51 337.091 152.943C337.597 152.538 337.869 153.709 337.869 152.582C337.869 151.614 337.557 152.419 338.194 152.419" stroke="#00ADB5" stroke-linecap="round" stroke-linejoin="round"/>
<path d="M334.289 156.161C336.029 155.642 340.845 154.484 339.73 155.917C338.385 157.646 337.81 156.779 336.16 157.146C335.316 157.334 334.493 159.938 335.428 159.993C336.763 160.072 337.648 158.276 339.007 158.276C340.244 158.276 340.156 159.904 339.414 160.481C338.434 161.243 337.307 160.424 336.648 161.611C335.606 163.487 338.452 163.182 339.26 162.741C340.074 162.297 340.848 161.604 341.448 161.204" stroke="#00ADB5" stroke-linecap="round" stroke-linejoin="round"/>
<path d="M338.357 152.541C338.335 152.683 338.312 153.639 337.93 153.639C337.724 153.639 337.629 153.514 337.442 153.619C337.221 153.742 337.013 154.03 336.802 154.199C336.616 154.348 336.063 154.33 335.957 154.516C335.784 154.819 335.431 154.985 335.103 155.022C334.677 155.069 334.519 155.283 334.066 155.182C333.927 155.152 333.913 155.063 333.783 155.063C333.583 155.063 333.496 155.159 333.345 154.99C333.177 154.804 332.904 154.717 332.823 154.434C332.713 154.05 332.311 153.848 332.906 154.087" stroke="#00ADB5" stroke-linecap="round" stroke-linejoin="round"/>
<path d="M330.507 136.434C331.234 136.438 331.836 136.485 332.084 137.257C332.253 137.782 332.256 138.298 332.256 138.843C332.256 139.373 331.93 139.799 331.93 140.298C331.93 140.958 332.458 140.85 332.904 141.051C333.326 141.241 333.631 141.399 333.86 141.824C334.086 142.244 333.915 143.057 333.885 143.514C333.859 143.907 333.672 144.743 333.944 145.075C334.091 145.256 334.899 145.535 334.371 145.138" stroke="#00ADB5" stroke-linecap="round" stroke-linejoin="round"/>
<path d="M324.365 143.796C323.782 144.183 323.188 144.508 322.537 144.752C322.264 144.854 321.904 145.037 321.965 144.61" stroke="#00ADB5" stroke-linecap="round" stroke-linejoin="round"/>
<path d="M322.25 138.183C321.217 138.432 320.192 138.712 319.168 138.988C318.998 139.034 319.389 138.603 319.403 138.59" stroke="#00ADB5" stroke-linecap="round" stroke-linejoin="round"/>
<path d="M321.965 132.855C320.896 132.7 319.83 132.507 318.766 132.317C318.276 132.23 318.068 132.294 318.345 131.879" stroke="#00ADB5" stroke-linecap="round" stroke-linejoin="round"/>
<path d="M327.741 127.202C326.896 127.053 326.163 126.91 325.4 126.528C325.042 126.349 324.698 126.135 324.324 125.99C323.88 125.819 323.871 125.871 324.365 125.575" stroke="#00ADB5" stroke-linecap="round" stroke-linejoin="round"/>
<path d="M335.103 123.541C335.226 124.404 335.186 124.921 334.836 125.703C334.648 126.125 334.489 126.658 334.396 127.113C334.364 127.27 334.346 127.359 334.24 127.477C334.2 127.521 334.346 126.997 334.371 126.917" stroke="#00ADB5" stroke-linecap="round" stroke-linejoin="round"/>
<path d="M341.326 126.998C341.056 127.897 340.671 128.759 340.44 129.66C340.323 130.116 340.396 130.143 340.594 129.683" stroke="#00ADB5" stroke-linecap="round" stroke-linejoin="round"/>
<path d="M343.929 133.465C343.005 134.265 342.247 135.258 341.529 136.24C341.439 136.363 341.335 136.407 341.235 136.507C341.009 136.733 341.4 136.221 341.448 136.15" stroke="#00ADB5" stroke-linecap="round" stroke-linejoin="round"/>
<path d="M136.831 215.052C138.183 221.144 139.706 227.249 140.601 233.433C141.1 236.887 140.003 231.903 139.867 231.198C139.571 229.672 139.233 228.321 139.233 226.761C139.233 223.622 139.149 220.447 138.916 217.304C138.753 215.104 136.05 208.552 139.466 214.018C142.95 219.591 145.409 225.752 147.773 231.832C148.099 232.669 148.55 233.463 148.907 234.267C149.102 234.706 145.446 231.133 144.037 230.364" stroke="#00ADB5" stroke-width="2" stroke-linecap="round" stroke-linejoin="round"/>
<path d="M134.729 228.562C138.633 227.005 147.239 224.067 149.741 219.689C150.789 217.855 150.585 218.703 147.639 219.255" stroke="#00ADB5" stroke-width="2" stroke-linecap="round" stroke-linejoin="round"/>
<path d="M146.438 208.147C149.451 214.11 151.632 220.459 152.46 227.078C152.536 227.691 152.679 228.365 153.11 228.796C153.19 228.876 151.665 226.022 151.242 225.26" stroke="#00ADB5" stroke-width="2" stroke-linecap="round" stroke-linejoin="round"/>
<path d="M146.438 207.847C148.774 209.246 157.353 214.413 151.759 217.704C151.268 217.993 150.693 218.26 150.341 218.722C149.598 219.7 149.508 219.987 150.041 218.655" stroke="#00ADB5" stroke-width="2" stroke-linecap="round" stroke-linejoin="round"/>
<path d="M154.244 204.844C155.239 211.585 156.946 218.992 156.946 225.86C156.946 227.377 156.693 224.568 156.346 223.759" stroke="#00ADB5" stroke-width="2" stroke-linecap="round" stroke-linejoin="round"/>
<path d="M161.15 216.853C162.798 221.767 163.646 224.662 158.815 226.094C157.164 226.583 159.158 224.185 159.582 223.892C161.027 222.892 162.466 219.671 160.849 218.054C160.206 217.411 158.667 218.224 158.214 217.454C157.547 216.319 159.042 214.172 159.949 213.618C162.555 212.025 162.227 214.27 161.15 213.551" stroke="#00ADB5" stroke-width="2" stroke-linecap="round" stroke-linejoin="round"/>
<path d="M251.336 125.678C252.331 130.914 256.429 146.205 254.045 141.437C253.788 140.924 253.574 140.488 253.552 139.905C253.473 137.749 253.312 135.495 252.567 133.448C251.945 131.736 252.075 129.962 252.075 128.14C252.075 127.776 251.455 124.904 251.514 124.885C252.141 124.676 254.727 127.818 255.194 128.359C257.558 131.099 259.948 134.247 261.637 137.456C262.507 139.109 262.769 139.7 260.693 139.96" stroke="#00ADB5" stroke-width="2" stroke-linecap="round" stroke-linejoin="round"/>
<path d="M251.09 136.266C253.401 135.094 255.602 134.157 257.985 133.311" stroke="#00ADB5" stroke-width="2" stroke-linecap="round" stroke-linejoin="round"/>
<path d="M257.739 125.924C260.105 129.469 262.358 133.24 265.112 136.513C265.505 136.979 266.33 137.827 266.33 136.731C266.33 135.236 265.502 133.691 265.126 132.272C264.525 130.001 263.966 127.721 263.457 125.432C262.966 123.222 263.312 124.047 264.141 125.705C265.515 128.453 266.961 130.956 268.874 133.394C270.163 135.036 270.297 134.121 270.297 132.682C270.297 130.068 269.021 127.918 268.081 125.569C267.077 123.059 267.144 119.632 266.001 117.347C265.557 116.458 265.495 119.275 265.372 120.261" stroke="#00ADB5" stroke-width="2" stroke-linecap="round" stroke-linejoin="round"/>
<path d="M271.035 117.06C271.098 117.349 272.015 124.518 273.635 123.708C274.344 123.353 274.518 122.268 275.249 121.902C276.433 121.31 277.712 122.359 278.176 123.38C279.404 126.08 277.991 129.207 275.769 130.849C272.69 133.125 273.744 129.028 273.744 127.894" stroke="#00ADB5" stroke-width="2" stroke-linecap="round" stroke-linejoin="round"/>
<path d="M272.513 116.567C272.07 117.778 271.264 123.4 271.022 121.218C270.872 119.872 271.138 118.848 271.282 117.552C271.623 114.479 273.974 116.951 273.005 115.336" stroke="#00ADB5" stroke-width="2" stroke-linecap="round" stroke-linejoin="round"/>
<path d="M256.091 278.305C256.009 278.155 252.457 272.037 252.764 271.861C253.191 271.618 253.986 271.854 254.488 271.666C255.97 271.11 257.164 269.963 258.384 269.014C259.667 268.016 261.425 275.847 261.816 277.496C262.289 279.491 263.519 282.144 261.217 283.296C259.141 284.334 256.41 284.02 254.143 283.97C250.446 283.888 247.891 277.819 247.459 274.798C247.145 272.599 244.1 265.54 247.369 264.128C248.245 263.75 249.732 264.008 250.681 264.008C252.04 264.008 253.226 263.199 254.608 263.199C256.806 263.199 257.471 265.945 255.552 262.929" stroke="#00ADB5" stroke-width="2" stroke-linecap="round" stroke-linejoin="round"/>
<path d="M262.296 265.087C262.679 266.484 263.912 274.236 267.151 272.251C267.767 271.873 268.216 270.957 268.44 270.303C269.036 268.557 269.162 267.099 267.825 265.762C266.824 264.76 264.89 262.716 263.434 262.66C259.826 262.521 263.009 266.563 262.565 265.897" stroke="#00ADB5" stroke-width="2" stroke-linecap="round" stroke-linejoin="round"/>
<path d="M262.835 252.679C265.5 256.891 269.52 261.524 271.137 266.376C271.344 266.995 271.351 267.416 271.737 267.995C272.319 268.868 272.594 270.136 273.146 268.804C273.944 266.875 275.762 265.163 277.192 263.679C278.956 261.847 279.197 262.39 276.053 262.39" stroke="#00ADB5" stroke-width="2" stroke-linecap="round" stroke-linejoin="round"/>
<path d="M281.448 251.33C281.113 252.086 276.031 262.143 280.938 259.857C281.915 259.403 282.911 258.695 282.782 257.534C282.657 256.415 281.723 255.536 281.238 254.567C280.964 254.02 279.87 251.381 280.249 252.139C281.376 254.393 282.889 258.406 284.565 260.082C286.518 262.035 287.688 259.982 285.764 258.883" stroke="#00ADB5" stroke-width="2" stroke-linecap="round" stroke-linejoin="round"/>
<path d="M284.415 252.409C291.924 264.319 282.423 250.956 284.61 248.618C286.727 246.355 289.228 250.7 290.02 252.079C291.4 254.482 292.759 260.716 290.619 254.297" stroke="#00ADB5" stroke-width="2" stroke-linecap="round" stroke-linejoin="round"/>
<path d="M293.856 242.159C293.729 242.609 289.702 253.942 292.717 252.889C293.999 252.441 295.286 251.428 295.969 250.266C296.758 248.925 297.126 247.085 296.554 245.605C296.164 244.596 295.742 243.518 295.205 242.578C293.929 240.344 297.369 247.248 298.397 249.607C299.903 253.061 303.53 265.169 294.98 262.765C291.251 261.716 294.763 255.916 294.396 255.916" stroke="#00ADB5" stroke-width="2" stroke-linecap="round" stroke-linejoin="round"/>
<path d="M187.688 186.425C189.029 186.057 190.172 185.685 191.114 184.625C191.486 184.207 191.536 183.673 191.726 183.167C191.973 182.508 191.666 181.667 191.456 181.035C191.287 180.53 192.207 180.247 192.536 180.226C193.101 180.189 193.532 180.549 194.075 180.58C194.727 180.619 195.423 180.828 195.875 181.337C196.182 181.682 196.593 181.763 196.932 182.063C197.254 182.347 197.509 182.843 197.742 183.207C198.416 184.26 198.606 185.488 198.802 186.693C198.896 187.27 198.953 187.899 198.856 188.483C198.74 189.179 198.863 189.849 198.588 190.517C198.398 190.978 198.094 191.589 197.661 191.861C197.217 192.141 196.805 192.242 196.691 192.822C196.454 194.033 197.062 195.219 196.828 196.441C196.621 197.527 195.186 197.693 194.299 197.867C193.687 197.987 192.574 198.174 191.984 197.853C190.885 197.256 190.089 196.509 189.274 195.558C188.552 194.716 188.279 193.484 188.184 192.407C188.086 191.307 188.085 190.113 188.11 189.001C188.126 188.263 188.341 187.522 188.411 186.786C188.468 186.184 188.659 186.136 188.351 186.907" stroke="#00ADB5" stroke-linecap="round" stroke-linejoin="round"/>
<path d="M195.457 180.945C195.91 179.777 196.408 178.61 196.755 177.406C196.911 176.864 196.948 176.291 197.143 175.763C197.369 175.149 197.481 174.455 197.578 173.813C197.647 173.352 197.681 172.537 198.103 172.247C198.411 172.035 198.586 171.551 198.916 171.297C199.34 170.97 199.941 170.666 200.241 170.229C200.536 169.801 200.85 168.915 200.602 168.42C200.465 168.144 200.483 167.847 200.348 167.577C200.172 167.224 200.013 166.938 199.88 166.556C199.763 166.222 199.396 165.556 199.823 165.318C200.868 164.738 200.94 165.652 201.265 166.486C201.432 166.917 201.457 167.443 201.613 167.891C201.719 168.198 201.907 167.976 202.051 168.152C202.268 168.417 202.278 168.749 202.442 169.035C202.687 169.464 202.399 170.335 202.275 170.755C202.044 171.532 201.807 172.236 201.465 172.983C200.585 174.906 199.15 176.525 198.167 178.389C197.792 179.099 197.493 179.813 197.31 180.597C197.206 181.043 196.902 181.468 196.902 181.939C196.902 182.369 196.796 182.589 197.022 181.909" stroke="#00ADB5" stroke-linecap="round" stroke-linejoin="round"/>
<path d="M200.154 166.432C199.387 166.55 198.551 166.595 197.866 166.938C197.771 166.985 197.918 166.862 197.986 166.854C198.904 166.746 199.907 165.927 200.743 165.529C201.364 165.233 202.215 164.566 202.924 164.566C203.129 164.566 202.242 165.137 202.141 165.228" stroke="#00ADB5" stroke-linecap="round" stroke-linejoin="round"/>
<path d="M199.371 167.757C200.224 167.261 201.711 166.723 202.335 165.89C202.396 165.809 202.441 165.7 202.529 165.65C202.839 165.472 202.291 165.67 202.201 165.71" stroke="#00ADB5" stroke-linecap="round" stroke-linejoin="round"/>
<path d="M199.973 168.54C200.997 168.148 202.869 167.8 203.432 166.673C203.514 166.511 203.333 166.553 203.225 166.553" stroke="#00ADB5" stroke-linecap="round" stroke-linejoin="round"/>
<path d="M201.057 168.42C200.992 169.8 201.006 171.205 200.217 172.387C199.833 172.964 199.566 173.348 199.431 174.023C199.287 174.745 199.129 175.348 198.799 176.007C198.474 176.658 198.092 177.189 197.772 177.814C197.606 178.137 197.197 178.449 197.277 178.837C197.317 179.034 197.22 179.21 197.156 179.393C196.968 179.936 196.616 180.416 196.286 180.885C196.063 181.204 196.065 181.776 196.36 181.186" stroke="#00ADB5" stroke-linecap="round" stroke-linejoin="round"/>
<path d="M196.179 179.56C196.723 179.678 197.549 180.042 198.106 180.042C198.117 180.042 197.633 179.458 197.564 179.379" stroke="#00ADB5" stroke-linecap="round" stroke-linejoin="round"/>
<path d="M196.541 177.091C197.309 177.419 198.079 177.744 198.842 178.085C199.021 178.164 199.011 178.176 198.949 178.115C198.817 177.983 198.705 177.839 198.588 177.693" stroke="#00ADB5" stroke-linecap="round" stroke-linejoin="round"/>
<path d="M197.263 175.465C198.189 175.753 199.113 176.063 200.05 176.315C200.155 176.343 200.302 176.4 200.201 176.295C199.999 176.086 199.767 175.901 199.552 175.706" stroke="#00ADB5" stroke-linecap="round" stroke-linejoin="round"/>
<path d="M197.745 173.418C198.799 173.933 199.849 174.488 200.93 174.947C201.108 175.022 201.167 175.078 201.131 174.937C201.081 174.746 201.008 174.565 200.937 174.381" stroke="#00ADB5" stroke-linecap="round" stroke-linejoin="round"/>
<path d="M199.07 171.973C199.166 172.019 202.081 173.6 201.84 172.996" stroke="#00ADB5" stroke-linecap="round" stroke-linejoin="round"/>
<path d="M199.672 171.009C200.552 171.216 201.441 171.404 202.322 171.551" stroke="#00ADB5" stroke-linecap="round" stroke-linejoin="round"/>
<path d="M200.636 170.046C201.037 170.065 201.439 170.085 201.84 170.106" stroke="#00ADB5" stroke-linecap="round" stroke-linejoin="round"/>
<path d="M192.687 188.111C192.268 188.277 189.691 188.918 189.676 189.63C189.67 189.908 189.676 190.187 189.709 190.463C189.813 191.321 190.41 191.77 191.141 192.179C192.071 192.7 193.072 192.716 194.085 192.42C195.048 192.139 195.675 191.073 195.289 190.159C195.21 189.969 195.486 189.93 195.306 189.71C195.131 189.496 195.016 189.621 194.734 189.677" stroke="#00ADB5" stroke-linecap="round" stroke-linejoin="round"/>
<path d="M191.422 190.339C191.901 189.127 192.499 187.916 192.777 186.636C192.85 186.301 192.94 186.019 193.122 185.716C193.506 185.076 193.844 184.393 194.072 183.682C194.288 183.007 194.302 182.341 194.587 181.681C194.689 181.446 195.296 180.74 195.035 181.066" stroke="#00ADB5" stroke-linecap="round" stroke-linejoin="round"/>
<path d="M196.179 181.668C195.956 183.063 195.62 184.398 195.383 185.776C195.252 186.54 195.035 187.179 195.035 187.984C195.035 188.56 195.241 189.04 195.109 189.617C194.957 190.281 194.82 189.954 194.553 189.496" stroke="#00ADB5" stroke-linecap="round" stroke-linejoin="round"/>
<path d="M195.577 181.668C195.158 182.539 194.252 183.97 194.252 185.07C194.252 185.695 194.293 186.359 194.249 186.994C194.197 187.748 193.608 188.727 193.255 189.376C193.138 189.591 192.986 189.758 192.914 189.991C192.824 190.283 192.888 190.301 192.687 189.978" stroke="#00ADB5" stroke-linecap="round" stroke-linejoin="round"/>
<path d="M191.241 189.075C192.267 189.808 194.077 191.305 195.336 190.011C195.533 189.81 195.816 189.379 195.925 189.122C196.074 188.77 195.592 189.068 195.276 189.135" stroke="#00ADB5" stroke-linecap="round" stroke-linejoin="round"/>
<path d="M192.446 187.991C193.031 187.972 194.213 188.13 194.781 187.837C194.8 187.827 194.737 187.844 194.721 187.857C194.665 187.902 194.548 187.829 194.493 187.81" stroke="#00ADB5" stroke-linecap="round" stroke-linejoin="round"/>
<path d="M193.108 185.763C193.537 185.876 195.091 186.538 195.156 185.823" stroke="#00ADB5" stroke-linecap="round" stroke-linejoin="round"/>
<path d="M193.831 183.956C194.363 184.304 196.522 185.912 196.179 184.197" stroke="#00ADB5" stroke-linecap="round" stroke-linejoin="round"/>
<path d="M194.433 183.113C194.975 183.254 195.517 183.394 196.059 183.535" stroke="#00ADB5" stroke-linecap="round" stroke-linejoin="round"/>
<path d="M197.083 183.113C197.753 183.744 199.091 185.213 199.13 186.318C199.162 187.219 199.13 188.09 199.13 189.001C199.13 189.664 199.257 190.371 199.19 191.002C199.103 191.829 197.833 191.84 198.136 192.812C198.238 193.136 198.15 193.328 198.434 193.561C198.68 193.762 198.858 193.995 198.949 194.314C199.162 195.058 198.738 195.729 198.227 196.241C197.906 196.561 197.491 197.205 197.113 197.415C196.926 197.519 196.544 197.445 196.33 197.445C196.131 197.445 195.73 197.574 195.55 197.656C195.286 197.776 194.949 197.564 194.614 197.686" stroke="#00ADB5" stroke-linecap="round" stroke-linejoin="round"/>
<path d="M187.688 186.606C187.931 187.412 188.112 188.083 188.518 188.774C188.685 189.057 188.662 189.315 188.588 189.647C188.503 190.032 188.221 190.937 188.441 191.333C188.779 191.942 188.772 192.586 188.772 193.26C188.772 193.909 189.788 194.192 190.121 194.525C190.615 195.019 190.401 195.651 191.215 195.866C191.393 195.913 191.671 195.916 191.81 196.03C191.916 196.116 192.039 196.333 192.178 196.358C192.465 196.41 192.849 196.353 193.108 196.468C193.325 196.564 193.483 196.703 193.68 196.813C193.898 196.934 194.196 196.798 194.433 196.917C195.243 197.321 194.881 196.936 194.313 196.482" stroke="#00ADB5" stroke-linecap="round" stroke-linejoin="round"/>
<path d="M127.761 156.361C126.152 158.419 119.243 166.659 125.13 168.523C126.957 169.102 129.335 167.771 131.304 167.964C134.088 168.235 135.654 170.602 136.339 173.061C137.128 175.891 132.775 180.925 134.868 182.446C138.452 185.053 143.613 180.645 146.574 184.145C148.253 186.129 146.488 189.011 147.528 184.332" stroke="#00ADB5" stroke-linecap="round" stroke-linejoin="round"/>
<path d="M208.574 124.287C210.125 126.342 213.816 130.971 215.204 133.611C216.386 135.857 214.897 135.767 213.629 134.875C212.114 133.807 212.327 131.537 212.759 129.964C214.219 124.655 223.668 119.775 224.735 127.934C225.11 130.799 222.548 135.618 219.058 134.481C214.45 132.98 214.744 125.948 218.229 123.334C221.794 120.66 227.636 123.732 227.636 128.099C227.636 132.948 221.873 134.449 219.638 130.171C217.607 126.284 221.206 122.217 225.067 121.635C226.486 121.421 230.154 123.061 227.594 123.914" stroke="#00ADB5" stroke-linecap="round" stroke-linejoin="round"/>
<path d="M286.52 161.209C284.105 163.609 276.473 169.204 282.894 171.382C286.631 172.65 290.09 170.572 292.405 167.736C294.959 164.606 295.393 159.657 291.327 157.625C288.166 156.044 285.441 153.504 282.791 157.48" stroke="#00ADB5" stroke-linecap="round" stroke-linejoin="round"/>
<path d="M368.943 194.029C364.331 196.776 357.329 200.094 364.467 202.689C365.565 203.088 366.279 202.829 367.244 202.151C370.812 199.643 371.022 198.639 370.807 194.775C370.665 192.216 366.924 192.8 365.213 193.656C362.691 194.917 360.931 197.441 359.909 199.996C358.534 203.433 365.642 203.223 366.622 199.084C367.237 196.49 364.269 192.804 362.23 195.976C359.528 200.179 363.651 203.938 366.249 199.54C368.738 195.328 362.923 193.591 361.359 198.504C359.304 204.964 371.522 197.95 367.078 195.728C364.429 194.403 359.956 202.814 364.84 200.721C370.771 198.179 364.136 194.433 364.136 200.369C364.136 205.186 372.103 198.195 366.912 196.308C365.725 195.876 364.554 199.668 365.4 200.514C366.87 201.984 369.426 198.176 369.295 196.805C368.734 190.919 362.973 205.883 369.834 199.022C371.401 197.455 371.337 194.622 368.736 196.287C367.201 197.269 366.229 201.439 369.129 200.472C371.914 199.544 371.914 194.386 368.922 195.583C367.096 196.313 366.435 198.898 364.467 198.504" stroke="#00ADB5" stroke-linecap="round" stroke-linejoin="round"/>
<path d="M328.664 232.443C327.894 233.292 315.605 248.455 321.785 240.73C323.198 238.964 324.497 237.226 326.426 235.986C327.616 235.221 328.761 234.749 329.783 233.727C330.899 232.611 329.316 232.684 329.058 235.012C328.832 237.039 329.005 245.889 328.664 245.869C326.36 245.733 324.85 243.466 322.717 242.719C321.575 242.32 318.188 242.895 319.133 242.139C321.443 240.291 328.518 234.992 326.426 237.084C324.841 238.668 321.585 244.624 322.697 242.678C323.487 241.294 325.626 236.786 325.307 237.54C324.652 239.093 323.511 241.753 323.608 243.465C323.701 245.091 326.93 241.091 327.131 240.689C328.627 237.696 325.531 244.427 326.633 242.823C327.626 241.379 330.984 237.707 328.581 241.311C328.055 242.099 331.07 238.46 330.529 239.239C330.372 239.464 329.005 241.757 329.804 240.958C332.663 238.099 328.45 241.072 327.918 240.275" stroke="#00ADB5" stroke-linecap="round" stroke-linejoin="round"/>
<path d="M303.676 294.352C304.982 292.493 312.442 284.291 306.308 283.931C305.271 283.87 303.133 283.533 302.267 284.241C300.209 285.926 301.101 290.469 303.883 290.975C307.573 291.646 311.031 286.601 307.033 284.656C302.856 282.624 292.997 290.785 297.253 294.145C305.633 300.761 313.211 281.536 302.371 284.304C292.539 286.814 301.201 296.941 305.665 290.416C310.446 283.429 295.706 283.369 298.31 291.182C299.594 295.036 303.81 293.176 304.567 290.064C305.677 285.501 301.139 287.385 301.066 290.54C300.987 293.922 306.197 287.803 303.075 288.074C300.819 288.271 300.597 291.369 298.828 291.369" stroke="#00ADB5" stroke-linecap="round" stroke-linejoin="round"/>
<path d="M155.242 259.295C155.995 262.712 157.48 273.05 157.48 269.551C157.48 267.136 155.634 264.881 155.263 262.465C155.133 261.621 155.401 259.124 154.682 258.549C154.191 258.156 158.835 261.771 160.069 262.465C162.322 263.732 163.936 266.098 165.892 263.584C166.831 262.377 169.593 262.21 169.973 261.906C172.735 259.696 172.482 256.4 173.123 253.514C173.351 252.486 172.771 257.028 172.771 258.363C172.771 260.071 173.079 262.332 173.537 263.936C174.188 266.214 173.927 259.786 173.309 258.549C172.305 256.541 172.398 254.758 172.398 252.582C172.398 251.723 178.632 262.493 177.536 263.315C177.078 263.658 170.973 261.974 169.124 262.569C167.531 263.081 166.076 263.678 164.566 264.434C164.153 264.64 163.471 265.392 163.737 265.179C164.684 264.422 167.581 262.351 166.43 262.735C164.85 263.261 163.298 264.79 161.872 265.635C159.184 267.228 158.314 267.006 157.189 269.738C157.027 270.131 159.034 270.081 159.427 270.194C162.25 271 164.023 268.802 166.513 267.79C169.727 266.485 173.422 263.804 176.873 263.398C179.478 263.091 175.517 262.178 175.381 261.906" stroke="#00ADB5" stroke-linecap="round" stroke-linejoin="round"/>
<path d="M297.709 115.709C304.738 113.456 316.122 110.865 322.407 105.722C323.547 104.789 325.313 103.895 324.914 102.096C323.412 95.3404 320.146 93.7559 313.704 94.4716C310.132 94.8685 306.703 98.164 303.386 99.5064C299.972 100.888 296.556 102.704 293.441 104.686C290.288 106.692 292.115 107.686 292.115 111.151C292.115 113.056 293.253 115.709 295.285 115.709C296.211 115.709 298.866 114.963 296.238 114.963C294.175 114.963 290.974 115.276 289.131 114.3C287.724 113.555 290.502 112.088 291.162 112C293.519 111.686 288.46 113.992 287.95 114.155C286.9 114.491 291.738 110.825 289.048 111.689C286.133 112.627 290.46 110.114 291.369 109.659C292.395 109.146 291.5 109.958 291.742 109.535C292.129 108.857 294.37 106.367 292.343 108.395C291.664 109.074 293.875 107.237 294.622 106.634C296.028 105.498 294.244 107.222 293.897 107.504C292.297 108.806 291.922 107.756 290.623 108.333C290.08 108.574 288.758 109.375 288.758 108.437C288.758 106.818 294.47 106.08 295.513 106.033C301.901 105.743 306.371 102.925 312.254 101.454C315.085 100.746 318.179 99.727 320.832 98.4704C322.799 97.5385 326.741 94.6207 328.83 95.2175C329.65 95.452 316.986 102.821 320.625 100.418C323.634 98.4306 327.086 97.0349 322.572 100.77C318.956 103.763 325.318 100.277 325.825 100.48C326.737 100.845 320.21 104.573 325.183 102.283C327.085 101.407 328.664 101.364 328.664 99.2992C328.664 96.497 329.431 93.1756 325.867 94.4716C321.754 95.967 318.454 99.1633 314.202 100.418C311.27 101.283 308.415 102.375 305.541 103.402C302.206 104.593 296.171 105.924 293.793 108.83C292.526 110.379 290.269 116.414 294.933 113.803C299.211 111.407 299.891 106.56 302.184 102.739C303.323 100.84 300.2 106.748 299.739 108.913C299.21 111.403 301.554 114.269 304.236 113.803C307.177 113.291 310.272 109.229 311.322 106.758C316.369 94.8832 307.214 106.401 309.809 108.996C312.563 111.75 316.76 104.454 317.31 102.656C317.972 100.489 318.361 97.8175 319.154 95.7562C320.182 93.0827 313.617 96.0937 313 96.3985C309.586 98.0861 307.201 100.337 304.878 103.319C304.037 104.398 300.662 109.478 302.972 110.633C306.068 112.181 309.868 107.369 309.954 104.873C310.246 96.4151 303.282 100.75 299.076 104.065C296.478 106.113 298.735 110.207 299.201 109.742" stroke="#00ADB5" stroke-linecap="round" stroke-linejoin="round"/>
<path d="M203.353 317.848C203.191 317.978 197.054 323.271 197.054 321.764C197.054 320.882 197.733 319.938 198.338 319.361C199.535 318.221 204.264 317.344 203.125 320.128C202.361 321.995 199.239 324.746 198.359 321.226C197.994 319.763 200.503 316.83 202.027 318.076C203.707 319.451 200.095 321.202 198.96 320.583C196.933 319.478 199.367 315.542 201.322 316.357C203.366 317.208 200.555 319.537 199.623 320.003C197.445 321.092 197.75 319.332 196.639 318.221" stroke="#00ADB5" stroke-linecap="round" stroke-linejoin="round"/>
<path d="M102.283 317.475C104.433 321.018 108.527 324.694 104.355 327.918C103.279 328.75 96.9299 332.075 97.3102 328.208C97.7733 323.5 104.791 323.395 105.225 319.174C105.655 315.001 95.6869 316.573 93.4149 313.746C91.9916 311.975 90.8438 308.05 91.1772 305.79C91.3071 304.909 93.539 303.201 93.3113 304.795C92.8945 307.713 83.4864 315.187 89.0638 317.641C92.8032 319.287 93.768 315.121 96.5228 314.119C102.197 312.055 93.705 327.36 93.705 323.443" stroke="#00ADB5" stroke-linecap="round" stroke-linejoin="round"/>
<path d="M285.029 365.959C283.301 370.046 279.807 382.642 279.807 378.204C279.807 377.513 279.941 376.966 280.18 376.319C281.303 373.28 282.603 370.453 284.49 367.782C285.52 366.325 286.747 362.057 288.219 365.296C288.906 366.807 290.872 371.015 290.043 372.672C289.003 374.752 285.774 375.946 283.62 376.029C283.059 376.05 277.176 376.823 279.082 375.076C281.323 373.022 283.49 366.775 286.873 366.353C287.395 366.287 288.486 366.637 288.945 366.891C289.753 367.34 288.768 368.151 288.385 368.777C287.926 369.527 284.29 374.599 284.283 374.371C284.18 370.973 287.666 366.038 289.546 363.473C290.219 362.553 286.634 368.797 285.816 370.206C285.183 371.297 286.009 373.614 283.164 373.045" stroke="#00ADB5" stroke-linecap="round" stroke-linejoin="round"/>
<path d="M169.414 66.1066C167.75 72.6162 166.267 78.8185 165.664 85.4586C165.603 86.1228 165.184 86.5522 165.602 87.0747C166.224 87.8523 167.869 82.9079 168.502 81.584C170.509 77.3879 172.771 75.7319 172.771 70.582C172.771 69.8389 172.771 65.5619 172.771 68.3857C172.771 70.7831 173.225 73.1526 173.061 75.5547C172.936 77.3702 171.194 82.27 172.48 80.9832C174.467 78.997 172.875 69.0385 169.766 68.7794C165.522 68.4257 163.476 77.6245 162.991 80.4859C162.427 83.8151 164.774 85.2089 167.363 82.62C170.896 79.0863 171.663 71.8215 168.627 67.6813C164.455 61.9933 161.718 72.2564 161.375 74.7673C160.598 80.4473 163.77 82.2674 167.528 78.2275C168.911 76.7416 171.698 74.1723 171.113 71.8666C170.335 68.7996 165.802 71.7778 164.897 73.1098C163.614 74.9985 163.63 79.7029 165.705 81.0453C167.642 82.2987 169.527 77.1051 169.31 75.8033C168.39 70.2822 157.983 79.0467 163.157 82.1849C167.66 84.9162 170.645 72.6969 165.104 74.2079C163.561 74.6287 159.897 78.7869 163.074 78.7869" stroke="#00ADB5" stroke-linecap="round" stroke-linejoin="round"/>
<path d="M70.582 172.398C68.9061 177.146 67.6995 180.177 63.4545 182.84C62.3886 183.509 60.98 184.692 60.7609 186.031C60.2928 188.892 64.8056 192.045 67.3704 191.19C72.7746 189.389 64.5969 184.04 63.7238 182.488C62.2037 179.785 67.6979 174.931 70.2297 176.355C72.2005 177.463 73.0741 181.327 71.908 183.213C70.2092 185.961 66.5579 186.07 63.7031 185.637C61.4295 185.293 56.8754 185.761 58.2124 189.139C59.8854 193.365 67.7815 191.15 68.9658 187.564C70.1189 184.073 63.8764 182.757 65.2156 179.484C66.1355 177.235 69.0402 174.428 71.6179 174.428C74.7056 174.428 71.6221 180.196 71.1621 181.1C69.1309 185.092 66.023 185.49 62.087 186.57C54.6791 188.601 62.6595 188.887 63.1229 186.57" stroke="#00ADB5" stroke-linecap="round" stroke-linejoin="round"/>
<path d="M61.6311 223.492C60.8394 226.473 58.4987 231.561 58.7304 234.805C58.8389 236.325 59.2542 231.801 59.4348 230.288C59.7791 227.405 60.1728 224.149 61.714 221.627C61.9875 221.179 68.3129 229.075 68.8829 230.371C70.4085 233.838 68.4985 233.178 66.1065 234.307C64.7771 234.935 55.7053 238.137 55.7053 237.291C55.7053 236.404 57.4156 234.602 57.8187 233.852C59.0806 231.504 60.4344 228.556 60.9681 225.937C62.1078 220.341 61.2581 231.856 61.2581 232.733C61.2581 233.265 61.465 236.379 60.2222 236.379C58.6668 236.379 61.2737 233.452 61.7969 231.987C62.3516 230.433 64.5599 225.855 64.0138 224.217C63.2404 221.897 62.8535 229.004 62.7707 231.448C62.7145 233.105 61.9128 235.87 63.2058 233.188C63.6178 232.334 64.9477 228.83 64.9255 229.086C64.738 231.242 63.8688 233.465 63.8688 235.633C63.8688 237.853 65.0394 230.709 67.0596 229.79C67.5619 229.562 66.8524 233.774 66.8524 234.39C66.8524 235.513 67.9298 230.077 67.9298 231.199C67.9298 231.512 67.4828 233.403 67.1425 232.816C65.7477 230.406 64.6984 228.918 61.8383 228.05C60.5357 227.655 56.3953 227.926 57.7566 227.926C58.6513 227.926 60.0565 224.812 61.051 225.626C62.3703 226.705 60.5596 230.151 60.1393 231.324C59.4511 233.244 59.0202 230.544 60.7194 230.744C62.49 230.952 60.6836 237.49 61.6725 236.006C62.1315 235.318 63.5218 231.921 63.4751 232.318C62.5724 239.992 62.7602 230.22 64.2418 232.443" stroke="#00ADB5" stroke-linecap="round" stroke-linejoin="round"/>
<path d="M246.242 122.049C250.987 121.815 255.569 123.569 254.82 117.947C254.448 115.161 252.887 110.606 253.701 107.877C254.565 104.98 259.87 98.4453 255.338 96.3985C251.537 94.6821 246.57 99.5358 245.869 102.822C245.577 104.188 245.64 108.457 247.899 108.457C249.607 108.457 250.698 106.78 252.188 108.271C254.137 110.219 254.484 111.996 253.1 114.445C249.777 120.324 236.632 113.758 243.714 106.675C244.685 105.705 248.524 101.253 250.344 102.531C252.848 104.291 252.509 108.872 251.215 111.151C249.923 113.423 245.184 115.803 243.32 112.891C242.399 111.452 242.84 110.488 244.377 110.488" stroke="#00ADB5" stroke-linecap="round" stroke-linejoin="round"/>
<path d="M285.974 156.951C286.412 156.774 300.055 150.039 299.421 153.74C299.08 155.726 299.308 157.578 299.587 159.562C299.693 160.321 301.543 166.234 299.69 166.234C296.238 166.234 292.869 164.5 289.413 165.156C287.981 165.428 285.127 166.41 285.021 164.12C284.941 162.403 283.514 154.685 286.906 155.439C289.702 156.06 289.823 153.841 287.839 158.775C287.557 159.475 285.705 164.737 286.015 164.493C289.118 162.056 290.819 157.369 293.661 154.527C295.435 152.753 292.393 159.874 292.024 160.764C290.136 165.309 294.962 156.912 295.505 156.081C297.89 152.434 296.079 158.964 295.712 160.039C294.609 163.27 298 157.236 299.359 156.433C303.86 153.774 299.607 162.96 298.654 161.054" stroke="#00ADB5" stroke-linecap="round" stroke-linejoin="round"/>
<path d="M249.225 227.221C249.44 232.703 249.344 235.694 253.991 232.235C255.309 231.254 254.749 233.576 254.426 234.142C253.886 235.087 250.72 239.838 253.908 238.016C254.715 237.555 256.892 236.634 256.892 238.41C256.892 238.69 255.916 242.12 256.871 241.166C258.436 239.6 258.464 233.7 258.549 231.407C258.568 230.906 258.787 230.324 258.342 230.578C256.056 231.884 254.971 238.723 253.784 241.393C252.759 243.698 249.806 240.983 248.107 239.902C244.886 237.852 246.912 239.308 246.988 239.156" stroke="#00ADB5" stroke-linecap="round" stroke-linejoin="round"/>
<path d="M223.492 276.078C223.478 276.252 223.04 286.958 223.119 281.755C223.143 280.167 223.097 278.578 223.119 276.99C223.181 272.479 223.986 274.572 225.937 276.43C226.831 277.282 230.113 279.121 229.583 280.843C229.427 281.351 224.158 282.268 223.326 282.584C222.702 282.821 219.016 285.141 219.016 285.029C219.016 282.257 219.992 279.259 220.322 276.492C221.019 270.635 225.072 286.315 225.336 282.356C225.398 281.424 225.357 275.876 225.357 277.259C225.357 278.289 226.102 283.782 226.102 280.18C226.102 279.365 226.102 278.55 226.102 277.735C226.102 277.351 226.312 279.191 226.455 278.834C226.971 277.542 226.102 274.944 226.102 278.108C226.102 281.661 225.107 279.103 222.932 279.103C221.072 279.103 220.007 285.919 220.964 284.324C221.802 282.927 220.151 277.239 220.881 280.16C221.263 281.689 222.182 279.999 222.746 279.434" stroke="#00ADB5" stroke-linecap="round" stroke-linejoin="round"/>
<rect x="40" y="4" width="120.953" height="30" rx="3" fill="#404040"/>
<rect x="40.5" y="4.5" width="119.953" height="29" rx="2.5" stroke="black" stroke-opacity="0.14902"/>
<path d="M49.1094 22.125C48.6094 22.125 48.168 21.9987 47.7852 21.7461C47.4023 21.4909 47.1029 21.1315 46.8867 20.668C46.6706 20.2018 46.5625 19.651 46.5625 19.0156C46.5625 18.3854 46.6706 17.8385 46.8867 17.375C47.1029 16.9115 47.4036 16.5534 47.7891 16.3008C48.1745 16.0482 48.6198 15.9219 49.125 15.9219C49.5156 15.9219 49.8242 15.987 50.0508 16.1172C50.2799 16.2448 50.4544 16.3906 50.5742 16.5547C50.6966 16.7161 50.7917 16.849 50.8594 16.9531H50.9375V14H51.8594V22H50.9688V21.0781H50.8594C50.7917 21.1875 50.6953 21.3255 50.5703 21.4922C50.4453 21.6562 50.2669 21.8034 50.0352 21.9336C49.8034 22.0612 49.4948 22.125 49.1094 22.125ZM49.2344 21.2969C49.6042 21.2969 49.9167 21.2005 50.1719 21.0078C50.4271 20.8125 50.6211 20.543 50.7539 20.1992C50.8867 19.8529 50.9531 19.4531 50.9531 19C50.9531 18.5521 50.888 18.1602 50.7578 17.8242C50.6276 17.4857 50.4349 17.2227 50.1797 17.0352C49.9245 16.8451 49.6094 16.75 49.2344 16.75C48.8438 16.75 48.5182 16.8503 48.2578 17.0508C48 17.2487 47.806 17.5182 47.6758 17.8594C47.5482 18.1979 47.4844 18.5781 47.4844 19C47.4844 19.4271 47.5495 19.8151 47.6797 20.1641C47.8125 20.5104 48.0078 20.7865 48.2656 20.9922C48.526 21.1953 48.849 21.2969 49.2344 21.2969ZM56.1133 22.125C55.5716 22.125 55.0964 21.9961 54.6875 21.7383C54.2813 21.4805 53.9635 21.1198 53.7344 20.6562C53.5078 20.1927 53.3945 19.651 53.3945 19.0312C53.3945 18.4062 53.5078 17.8607 53.7344 17.3945C53.9635 16.9284 54.2813 16.5664 54.6875 16.3086C55.0964 16.0508 55.5716 15.9219 56.1133 15.9219C56.6549 15.9219 57.1289 16.0508 57.5352 16.3086C57.944 16.5664 58.2617 16.9284 58.4883 17.3945C58.7174 17.8607 58.832 18.4062 58.832 19.0312C58.832 19.651 58.7174 20.1927 58.4883 20.6562C58.2617 21.1198 57.944 21.4805 57.5352 21.7383C57.1289 21.9961 56.6549 22.125 56.1133 22.125ZM56.1133 21.2969C56.5247 21.2969 56.8633 21.1914 57.1289 20.9805C57.3945 20.7695 57.5911 20.4922 57.7188 20.1484C57.8464 19.8047 57.9102 19.4323 57.9102 19.0312C57.9102 18.6302 57.8464 18.2565 57.7188 17.9102C57.5911 17.5638 57.3945 17.2839 57.1289 17.0703C56.8633 16.8568 56.5247 16.75 56.1133 16.75C55.7018 16.75 55.3633 16.8568 55.0977 17.0703C54.832 17.2839 54.6354 17.5638 54.5078 17.9102C54.3802 18.2565 54.3164 18.6302 54.3164 19.0312C54.3164 19.4323 54.3802 19.8047 54.5078 20.1484C54.6354 20.4922 54.832 20.7695 55.0977 20.9805C55.3633 21.1914 55.7018 21.2969 56.1133 21.2969ZM62.6768 22.125C62.1351 22.125 61.6598 21.9961 61.251 21.7383C60.8447 21.4805 60.527 21.1198 60.2979 20.6562C60.0713 20.1927 59.958 19.651 59.958 19.0312C59.958 18.4062 60.0713 17.8607 60.2979 17.3945C60.527 16.9284 60.8447 16.5664 61.251 16.3086C61.6598 16.0508 62.1351 15.9219 62.6768 15.9219C63.2184 15.9219 63.6924 16.0508 64.0986 16.3086C64.5075 16.5664 64.8252 16.9284 65.0518 17.3945C65.2809 17.8607 65.3955 18.4062 65.3955 19.0312C65.3955 19.651 65.2809 20.1927 65.0518 20.6562C64.8252 21.1198 64.5075 21.4805 64.0986 21.7383C63.6924 21.9961 63.2184 22.125 62.6768 22.125ZM62.6768 21.2969C63.0882 21.2969 63.4268 21.1914 63.6924 20.9805C63.958 20.7695 64.1546 20.4922 64.2822 20.1484C64.4098 19.8047 64.4736 19.4323 64.4736 19.0312C64.4736 18.6302 64.4098 18.2565 64.2822 17.9102C64.1546 17.5638 63.958 17.2839 63.6924 17.0703C63.4268 16.8568 63.0882 16.75 62.6768 16.75C62.2653 16.75 61.9268 16.8568 61.6611 17.0703C61.3955 17.2839 61.1989 17.5638 61.0713 17.9102C60.9437 18.2565 60.8799 18.6302 60.8799 19.0312C60.8799 19.4323 60.9437 19.8047 61.0713 20.1484C61.1989 20.4922 61.3955 20.7695 61.6611 20.9805C61.9268 21.1914 62.2653 21.2969 62.6768 21.2969ZM69.0684 22.125C68.5684 22.125 68.127 21.9987 67.7441 21.7461C67.3613 21.4909 67.0618 21.1315 66.8457 20.668C66.6296 20.2018 66.5215 19.651 66.5215 19.0156C66.5215 18.3854 66.6296 17.8385 66.8457 17.375C67.0618 16.9115 67.3626 16.5534 67.748 16.3008C68.1335 16.0482 68.5788 15.9219 69.084 15.9219C69.4746 15.9219 69.7832 15.987 70.0098 16.1172C70.2389 16.2448 70.4134 16.3906 70.5332 16.5547C70.6556 16.7161 70.7507 16.849 70.8184 16.9531H70.8965V14H71.8184V22H70.9277V21.0781H70.8184C70.7507 21.1875 70.6543 21.3255 70.5293 21.4922C70.4043 21.6562 70.2259 21.8034 69.9941 21.9336C69.7624 22.0612 69.4538 22.125 69.0684 22.125ZM69.1934 21.2969C69.5632 21.2969 69.8757 21.2005 70.1309 21.0078C70.3861 20.8125 70.5801 20.543 70.7129 20.1992C70.8457 19.8529 70.9121 19.4531 70.9121 19C70.9121 18.5521 70.847 18.1602 70.7168 17.8242C70.5866 17.4857 70.3939 17.2227 70.1387 17.0352C69.8835 16.8451 69.5684 16.75 69.1934 16.75C68.8027 16.75 68.4772 16.8503 68.2168 17.0508C67.959 17.2487 67.765 17.5182 67.6348 17.8594C67.5072 18.1979 67.4434 18.5781 67.4434 19C67.4434 19.4271 67.5085 19.8151 67.6387 20.1641C67.7715 20.5104 67.9668 20.7865 68.2246 20.9922C68.485 21.1953 68.8079 21.2969 69.1934 21.2969ZM74.5566 14V22H73.6348V14H74.5566ZM78.7607 22.125C78.1826 22.125 77.6839 21.9974 77.2646 21.7422C76.848 21.4844 76.5264 21.125 76.2998 20.6641C76.0758 20.2005 75.9639 19.6615 75.9639 19.0469C75.9639 18.4323 76.0758 17.8906 76.2998 17.4219C76.5264 16.9505 76.8415 16.5833 77.2451 16.3203C77.6514 16.0547 78.1253 15.9219 78.667 15.9219C78.9795 15.9219 79.2881 15.974 79.5928 16.0781C79.8975 16.1823 80.1748 16.3516 80.4248 16.5859C80.6748 16.8177 80.874 17.125 81.0225 17.5078C81.1709 17.8906 81.2451 18.362 81.2451 18.9219V19.3125H76.6201V18.5156H80.3076C80.3076 18.1771 80.2399 17.875 80.1045 17.6094C79.9717 17.3437 79.7816 17.1341 79.5342 16.9805C79.2894 16.8268 79.0003 16.75 78.667 16.75C78.2998 16.75 77.9821 16.8411 77.7139 17.0234C77.4482 17.2031 77.2438 17.4375 77.1006 17.7266C76.9574 18.0156 76.8857 18.3255 76.8857 18.6562V19.1875C76.8857 19.6406 76.9639 20.0247 77.1201 20.3398C77.279 20.6523 77.499 20.8906 77.7803 21.0547C78.0615 21.2161 78.3883 21.2969 78.7607 21.2969C79.0029 21.2969 79.2217 21.263 79.417 21.1953C79.6149 21.125 79.7855 21.0208 79.9287 20.8828C80.0719 20.7422 80.1826 20.5677 80.2607 20.3594L81.1514 20.6094C81.0576 20.9115 80.9001 21.1771 80.6787 21.4062C80.4574 21.6328 80.1839 21.8099 79.8584 21.9375C79.5329 22.0625 79.167 22.125 78.7607 22.125ZM86.8975 17.3437L86.0693 17.5781C86.0173 17.4401 85.9404 17.306 85.8389 17.1758C85.7399 17.043 85.6045 16.9336 85.4326 16.8477C85.2607 16.7617 85.0407 16.7187 84.7725 16.7187C84.4053 16.7187 84.0993 16.8034 83.8545 16.9727C83.6123 17.1393 83.4912 17.3516 83.4912 17.6094C83.4912 17.8385 83.5745 18.0195 83.7412 18.1523C83.9079 18.2852 84.1683 18.3958 84.5225 18.4844L85.4131 18.7031C85.9495 18.8333 86.3493 19.0326 86.6123 19.3008C86.8753 19.5664 87.0068 19.9089 87.0068 20.3281C87.0068 20.6719 86.9079 20.9792 86.71 21.25C86.5146 21.5208 86.2412 21.7344 85.8896 21.8906C85.5381 22.0469 85.1292 22.125 84.6631 22.125C84.0511 22.125 83.5446 21.9922 83.1436 21.7266C82.7425 21.4609 82.4886 21.0729 82.3818 20.5625L83.2568 20.3437C83.3402 20.6667 83.4977 20.9089 83.7295 21.0703C83.9639 21.2318 84.2699 21.3125 84.6475 21.3125C85.0771 21.3125 85.4183 21.2214 85.6709 21.0391C85.9261 20.8542 86.0537 20.6328 86.0537 20.375C86.0537 20.1667 85.9808 19.9922 85.835 19.8516C85.6891 19.7083 85.4652 19.6016 85.1631 19.5312L84.1631 19.2969C83.6136 19.1667 83.21 18.9648 82.9521 18.6914C82.6969 18.4154 82.5693 18.0703 82.5693 17.6562C82.5693 17.3177 82.6644 17.0182 82.8545 16.7578C83.0472 16.4974 83.3089 16.293 83.6396 16.1445C83.973 15.9961 84.3506 15.9219 84.7725 15.9219C85.3662 15.9219 85.8324 16.0521 86.1709 16.3125C86.512 16.5729 86.7542 16.9167 86.8975 17.3437ZM91.4883 22V16H92.3789V16.9375H92.457C92.582 16.6172 92.7839 16.3685 93.0625 16.1914C93.3411 16.0117 93.6758 15.9219 94.0664 15.9219C94.4622 15.9219 94.7917 16.0117 95.0547 16.1914C95.3203 16.3685 95.5273 16.6172 95.6758 16.9375H95.7383C95.8919 16.6276 96.1224 16.3815 96.4297 16.1992C96.737 16.0143 97.1055 15.9219 97.5352 15.9219C98.0716 15.9219 98.5104 16.0898 98.8516 16.4258C99.1927 16.7591 99.3633 17.2786 99.3633 17.9844V22H98.4414V17.9844C98.4414 17.5417 98.3203 17.2253 98.0781 17.0352C97.8359 16.8451 97.5508 16.75 97.2227 16.75C96.8008 16.75 96.474 16.8776 96.2422 17.1328C96.0104 17.3854 95.8945 17.7057 95.8945 18.0937V22H94.957V17.8906C94.957 17.5495 94.8464 17.2747 94.625 17.0664C94.4036 16.8555 94.1185 16.75 93.7695 16.75C93.5299 16.75 93.306 16.8138 93.0977 16.9414C92.8919 17.069 92.7253 17.2461 92.5977 17.4727C92.4727 17.6966 92.4102 17.9557 92.4102 18.25V22H91.4883ZM101.049 22V16H101.971V22H101.049ZM101.518 15C101.338 15 101.183 14.9388 101.053 14.8164C100.925 14.694 100.861 14.5469 100.861 14.375C100.861 14.2031 100.925 14.056 101.053 13.9336C101.183 13.8112 101.338 13.75 101.518 13.75C101.697 13.75 101.851 13.8112 101.979 13.9336C102.109 14.056 102.174 14.2031 102.174 14.375C102.174 14.5469 102.109 14.694 101.979 14.8164C101.851 14.9388 101.697 15 101.518 15ZM104.347 16L105.784 18.4531L107.222 16H108.284L106.347 19L108.284 22H107.222L105.784 19.6719L104.347 22H103.284L105.19 19L103.284 16H104.347ZM111.868 22.125C111.29 22.125 110.791 21.9974 110.372 21.7422C109.955 21.4844 109.634 21.125 109.407 20.6641C109.183 20.2005 109.071 19.6615 109.071 19.0469C109.071 18.4323 109.183 17.8906 109.407 17.4219C109.634 16.9505 109.949 16.5833 110.353 16.3203C110.759 16.0547 111.233 15.9219 111.774 15.9219C112.087 15.9219 112.396 15.974 112.7 16.0781C113.005 16.1823 113.282 16.3516 113.532 16.5859C113.782 16.8177 113.981 17.125 114.13 17.5078C114.278 17.8906 114.353 18.362 114.353 18.9219V19.3125H109.728V18.5156H113.415C113.415 18.1771 113.347 17.875 113.212 17.6094C113.079 17.3437 112.889 17.1341 112.642 16.9805C112.397 16.8268 112.108 16.75 111.774 16.75C111.407 16.75 111.09 16.8411 110.821 17.0234C110.556 17.2031 110.351 17.4375 110.208 17.7266C110.065 18.0156 109.993 18.3255 109.993 18.6562V19.1875C109.993 19.6406 110.071 20.0247 110.228 20.3398C110.386 20.6523 110.606 20.8906 110.888 21.0547C111.169 21.2161 111.496 21.2969 111.868 21.2969C112.11 21.2969 112.329 21.263 112.524 21.1953C112.722 21.125 112.893 21.0208 113.036 20.8828C113.179 20.7422 113.29 20.5677 113.368 20.3594L114.259 20.6094C114.165 20.9115 114.007 21.1771 113.786 21.4062C113.565 21.6328 113.291 21.8099 112.966 21.9375C112.64 22.0625 112.274 22.125 111.868 22.125ZM118.021 22.125C117.521 22.125 117.079 21.9987 116.696 21.7461C116.313 21.4909 116.014 21.1315 115.798 20.668C115.582 20.2018 115.474 19.651 115.474 19.0156C115.474 18.3854 115.582 17.8385 115.798 17.375C116.014 16.9115 116.315 16.5534 116.7 16.3008C117.086 16.0482 117.531 15.9219 118.036 15.9219C118.427 15.9219 118.735 15.987 118.962 16.1172C119.191 16.2448 119.366 16.3906 119.485 16.5547C119.608 16.7161 119.703 16.849 119.771 16.9531H119.849V14H120.771V22H119.88V21.0781H119.771C119.703 21.1875 119.606 21.3255 119.481 21.4922C119.356 21.6562 119.178 21.8034 118.946 21.9336C118.715 22.0612 118.406 22.125 118.021 22.125ZM118.146 21.2969C118.515 21.2969 118.828 21.2005 119.083 21.0078C119.338 20.8125 119.532 20.543 119.665 20.1992C119.798 19.8529 119.864 19.4531 119.864 19C119.864 18.5521 119.799 18.1602 119.669 17.8242C119.539 17.4857 119.346 17.2227 119.091 17.0352C118.836 16.8451 118.521 16.75 118.146 16.75C117.755 16.75 117.429 16.8503 117.169 17.0508C116.911 17.2487 116.717 17.5182 116.587 17.8594C116.459 18.1979 116.396 18.5781 116.396 19C116.396 19.4271 116.461 19.8151 116.591 20.1641C116.724 20.5104 116.919 20.7865 117.177 20.9922C117.437 21.1953 117.76 21.2969 118.146 21.2969ZM125.681 22V16H126.571V16.9062H126.634C126.743 16.6094 126.941 16.3685 127.228 16.1836C127.514 15.9987 127.837 15.9062 128.196 15.9062C128.264 15.9062 128.349 15.9076 128.45 15.9102C128.552 15.9128 128.629 15.9167 128.681 15.9219V16.8594C128.649 16.8516 128.578 16.8398 128.466 16.8242C128.356 16.806 128.241 16.7969 128.118 16.7969C127.826 16.7969 127.566 16.8581 127.337 16.9805C127.11 17.1003 126.931 17.2669 126.798 17.4805C126.668 17.6914 126.603 17.9323 126.603 18.2031V22H125.681ZM132.028 22.125C131.487 22.125 131.011 21.9961 130.603 21.7383C130.196 21.4805 129.879 21.1198 129.649 20.6562C129.423 20.1927 129.31 19.651 129.31 19.0312C129.31 18.4062 129.423 17.8607 129.649 17.3945C129.879 16.9284 130.196 16.5664 130.603 16.3086C131.011 16.0508 131.487 15.9219 132.028 15.9219C132.57 15.9219 133.044 16.0508 133.45 16.3086C133.859 16.5664 134.177 16.9284 134.403 17.3945C134.632 17.8607 134.747 18.4062 134.747 19.0312C134.747 19.651 134.632 20.1927 134.403 20.6562C134.177 21.1198 133.859 21.4805 133.45 21.7383C133.044 21.9961 132.57 22.125 132.028 22.125ZM132.028 21.2969C132.44 21.2969 132.778 21.1914 133.044 20.9805C133.31 20.7695 133.506 20.4922 133.634 20.1484C133.761 19.8047 133.825 19.4323 133.825 19.0312C133.825 18.6302 133.761 18.2565 133.634 17.9102C133.506 17.5638 133.31 17.2839 133.044 17.0703C132.778 16.8568 132.44 16.75 132.028 16.75C131.617 16.75 131.278 16.8568 131.013 17.0703C130.747 17.2839 130.55 17.5638 130.423 17.9102C130.295 18.2565 130.231 18.6302 130.231 19.0312C130.231 19.4323 130.295 19.8047 130.423 20.1484C130.55 20.4922 130.747 20.7695 131.013 20.9805C131.278 21.1914 131.617 21.2969 132.028 21.2969ZM139.936 19.5469V16H140.857V22H139.936V20.9844H139.873C139.732 21.2891 139.514 21.5482 139.217 21.7617C138.92 21.9727 138.545 22.0781 138.092 22.0781C137.717 22.0781 137.383 21.9961 137.092 21.832C136.8 21.6654 136.571 21.4154 136.404 21.082C136.238 20.7461 136.154 20.3229 136.154 19.8125V16H137.076V19.75C137.076 20.1875 137.199 20.5365 137.443 20.7969C137.691 21.0573 138.006 21.1875 138.389 21.1875C138.618 21.1875 138.851 21.1289 139.088 21.0117C139.327 20.8945 139.528 20.7148 139.689 20.4727C139.854 20.2305 139.936 19.9219 139.936 19.5469ZM143.468 18.3906V22H142.546V16H143.437V16.9375H143.515C143.655 16.6328 143.869 16.388 144.155 16.2031C144.442 16.0156 144.812 15.9219 145.265 15.9219C145.671 15.9219 146.026 16.0052 146.331 16.1719C146.636 16.3359 146.873 16.5859 147.042 16.9219C147.211 17.2552 147.296 17.6771 147.296 18.1875V22H146.374V18.25C146.374 17.7786 146.252 17.4115 146.007 17.1484C145.762 16.8828 145.426 16.75 144.999 16.75C144.705 16.75 144.442 16.8138 144.21 16.9414C143.981 17.069 143.8 17.2552 143.667 17.5C143.534 17.7448 143.468 18.0417 143.468 18.3906ZM151.246 22.125C150.746 22.125 150.305 21.9987 149.922 21.7461C149.539 21.4909 149.24 21.1315 149.023 20.668C148.807 20.2018 148.699 19.651 148.699 19.0156C148.699 18.3854 148.807 17.8385 149.023 17.375C149.24 16.9115 149.54 16.5534 149.926 16.3008C150.311 16.0482 150.757 15.9219 151.262 15.9219C151.652 15.9219 151.961 15.987 152.188 16.1172C152.417 16.2448 152.591 16.3906 152.711 16.5547C152.833 16.7161 152.928 16.849 152.996 16.9531H153.074V14H153.996V22H153.105V21.0781H152.996C152.928 21.1875 152.832 21.3255 152.707 21.4922C152.582 21.6562 152.404 21.8034 152.172 21.9336C151.94 22.0612 151.632 22.125 151.246 22.125ZM151.371 21.2969C151.741 21.2969 152.053 21.2005 152.309 21.0078C152.564 20.8125 152.758 20.543 152.891 20.1992C153.023 19.8529 153.09 19.4531 153.09 19C153.09 18.5521 153.025 18.1602 152.895 17.8242C152.764 17.4857 152.572 17.2227 152.316 17.0352C152.061 16.8451 151.746 16.75 151.371 16.75C150.98 16.75 150.655 16.8503 150.395 17.0508C150.137 17.2487 149.943 17.5182 149.812 17.8594C149.685 18.1979 149.621 18.5781 149.621 19C149.621 19.4271 149.686 19.8151 149.816 20.1641C149.949 20.5104 150.145 20.7865 150.402 20.9922C150.663 21.1953 150.986 21.2969 151.371 21.2969Z" fill="white"/>
</svg>
